<svg width="24" height="25" viewBox="0 0 24 25" fill="none" xmlns="http://www.w3.org/2000/svg">
<path d="M17.6875 23.5318C14.9145 23.5318 14.8726 22.5537 11.7915 22.5537C8.70887 22.5537 8.67191 23.5318 5.89579 23.5318C3.12284 23.5318 3.08105 22.5537 0 22.5537V24.0208C2.77295 24.0208 2.81474 24.9989 5.89579 24.9989C8.9784 24.9989 9.01546 24.0208 11.7915 24.0208C14.5645 24.0208 14.6064 24.9989 17.6875 24.9989C20.7703 24.9989 20.8073 24.0208 23.5835 24.0208V22.5537C20.5008 22.5537 20.4637 23.5318 17.6875 23.5318Z" fill="url(#paint0_linear_379_203)"/>
<path d="M17.6875 20.5494C14.9145 20.5494 14.8726 19.5713 11.7915 19.5713C8.70887 19.5713 8.67191 20.5494 5.89579 20.5494C3.12284 20.5494 3.08105 19.5713 0 19.5713V21.0384C2.77295 21.0384 2.81474 22.0165 5.89579 22.0165C8.97845 22.0165 9.01541 21.0384 11.7915 21.0384C14.5645 21.0384 14.6064 22.0165 17.6875 22.0165C20.7703 22.0165 20.8073 21.0384 23.5835 21.0384V19.5713C20.5008 19.5713 20.4637 20.5494 17.6875 20.5494Z" fill="url(#paint1_linear_379_203)"/>
<path d="M15.3802 4.95499C14.0487 2.90468 12.923 1.43445 11.7921 0C10.6721 1.42068 9.55902 2.86855 8.20412 4.95499C6.15328 8.11308 5.1134 10.4719 5.1134 11.9658C5.1134 14.0012 5.84254 15.7187 7.22206 16.9326C8.4357 18.0007 10.0606 18.5889 11.7974 18.5889C13.5329 18.5889 15.1556 18.0012 16.3666 16.9341C17.7432 15.7209 18.4709 14.0029 18.4709 11.9658C18.4709 10.4719 17.431 8.11308 15.3802 4.95499Z" fill="url(#paint2_linear_379_203)"/>
<defs>
<linearGradient id="paint0_linear_379_203" x1="11.7918" y1="22.5537" x2="11.7983" y2="26.5566" gradientUnits="userSpaceOnUse">
<stop stop-color="#6AA589"/>
<stop offset="1" stop-color="white"/>
</linearGradient>
<linearGradient id="paint1_linear_379_203" x1="11.7918" y1="19.5713" x2="11.7983" y2="23.5743" gradientUnits="userSpaceOnUse">
<stop stop-color="#6AA589"/>
<stop offset="1" stop-color="white"/>
</linearGradient>
<linearGradient id="paint2_linear_379_203" x1="11.7922" y1="-1.41646e-08" x2="12.4536" y2="30.417" gradientUnits="userSpaceOnUse">
<stop stop-color="#6AA589"/>
<stop offset="1" stop-color="white"/>
</linearGradient>
</defs>
</svg>
