<svg width="28" height="45" viewBox="0 0 28 45" fill="none" xmlns="http://www.w3.org/2000/svg">
<path d="M25.3688 21.6042C26.8633 19.3971 27.7382 16.7371 27.7382 13.8691C27.7382 6.20956 21.5287 0 13.8691 0C6.20956 0 0 6.20956 0 13.8691C0 16.7122 0.856349 19.3547 2.3229 21.5556C3.7005 23.622 6.27989 26.6275 7.39893 28.8449L9.47982 32.9673H13.4047H14.2859H18.2119L20.2762 28.8749C21.3932 26.6585 23.9767 23.6602 25.3688 21.6042Z" fill="url(#paint0_linear_451_3773)"/>
<path d="M13.6338 45.0008C15.7509 45.0008 17.4657 43.284 17.4657 41.1669H9.79785C9.79785 43.284 11.5157 45.0008 13.6338 45.0008Z" fill="url(#paint1_linear_451_3773)"/>
<path d="M9.65238 37.4449L17.7929 35.8997C18.4031 35.786 18.8033 35.1954 18.6875 34.5852C18.5706 33.975 17.9945 33.5789 17.373 33.6906L9.23248 35.2368C8.62228 35.3505 8.22203 35.9401 8.33994 36.5513C8.44129 37.0901 8.91394 37.4666 9.44243 37.4666C9.51069 37.4645 9.57999 37.4583 9.65238 37.4449Z" fill="url(#paint2_linear_451_3773)"/>
<path d="M18.9238 37.6402C18.8101 37.03 18.2309 36.636 17.6093 36.7456L9.46885 38.2897C8.85865 38.4045 8.45633 38.994 8.57423 39.6042C8.67559 40.142 9.14823 40.5195 9.67673 40.5195C9.74499 40.5195 9.81635 40.5112 9.88668 40.4988L18.0272 38.9526C18.6394 38.8378 19.0397 38.2504 18.9238 37.6402Z" fill="url(#paint3_linear_451_3773)"/>
<defs>
<linearGradient id="paint0_linear_451_3773" x1="13.8691" y1="0" x2="14.4892" y2="50.3334" gradientUnits="userSpaceOnUse">
<stop stop-color="#DF0D1A"/>
<stop offset="1" stop-color="white"/>
</linearGradient>
<linearGradient id="paint1_linear_451_3773" x1="13.6318" y1="41.1669" x2="13.6621" y2="47.0211" gradientUnits="userSpaceOnUse">
<stop stop-color="#DF0D1A"/>
<stop offset="1" stop-color="white"/>
</linearGradient>
<linearGradient id="paint2_linear_451_3773" x1="13.5134" y1="33.6718" x2="13.5353" y2="39.4664" gradientUnits="userSpaceOnUse">
<stop stop-color="#DF0D1A"/>
<stop offset="1" stop-color="white"/>
</linearGradient>
<linearGradient id="paint3_linear_451_3773" x1="13.7488" y1="36.7273" x2="13.7707" y2="42.5179" gradientUnits="userSpaceOnUse">
<stop stop-color="#DF0D1A"/>
<stop offset="1" stop-color="white"/>
</linearGradient>
</defs>
</svg>
