<svg width="25" height="22" viewBox="0 0 25 22" fill="none" xmlns="http://www.w3.org/2000/svg">
<path d="M21.4068 2.90035H4.3014L3.49219 0.54485C3.38001 0.216337 3.0756 0 2.73907 0H0.784165C-0.257374 0.00801991 -0.265394 1.59441 0.784165 1.60238H2.16224C2.32248 2.12317 2.93937 3.73357 3.0115 4.23833L4.93432 14.8861L4.28536 16.2401C3.54026 17.5701 4.55779 19.3488 6.08006 19.2927H20.7659C21.8074 19.2847 21.8234 17.6983 20.7659 17.6903H6.08006C5.85571 17.6903 5.73551 17.5461 5.69546 17.482C5.65541 17.4179 5.57531 17.2416 5.67145 17.0413L6.27234 15.7995H21.519C21.9115 15.7995 22.2401 15.5191 22.3121 15.1425L23.9866 5.88878C24.3071 4.38253 22.9852 2.82021 21.4068 2.90035ZM8.09903 11.0725V7.63537C8.09903 7.1867 8.45958 6.83418 8.90022 6.83418C9.34087 6.83418 9.70141 7.1867 9.70141 7.63537V11.0725C9.70141 11.5132 9.34087 11.8736 8.90022 11.8736C8.45958 11.8736 8.09903 11.5131 8.09903 11.0725ZM12.6738 11.0725V7.63537C12.6738 7.1867 13.0344 6.83418 13.475 6.83418C13.9157 6.83418 14.2762 7.1867 14.2762 7.63537V11.0725C14.2762 11.5132 13.9157 11.8736 13.475 11.8736C13.0344 11.8736 12.6738 11.5131 12.6738 11.0725ZM18.859 11.0725C18.859 11.5132 18.4985 11.8736 18.0498 11.8736C17.6092 11.8736 17.2487 11.5132 17.2487 11.0725V7.63537C17.2487 7.1867 17.6092 6.83418 18.0498 6.83418C18.4985 6.83418 18.859 7.1867 18.859 7.63537V11.0725Z" fill="url(#paint0_linear_379_134)"/>
<path d="M9.0275 20.9093C9.0275 20.3068 8.53913 19.8184 7.93658 19.8184C7.33412 19.8184 6.8457 20.3068 6.8457 20.9093C6.8457 21.5118 7.33412 22.0002 7.93658 22.0002C8.53913 22.0002 9.0275 21.5118 9.0275 20.9093Z" fill="url(#paint1_linear_379_134)"/>
<path d="M17.9817 21.9999C18.5844 21.9999 19.0729 21.5114 19.0729 20.9087C19.0729 20.3061 18.5844 19.8175 17.9817 19.8175C17.3791 19.8175 16.8905 20.3061 16.8905 20.9087C16.8905 21.5114 17.3791 21.9999 17.9817 21.9999Z" fill="url(#paint2_linear_379_134)"/>
<defs>
<linearGradient id="paint0_linear_379_134" x1="12.0175" y1="0" x2="12.2626" y2="29.4598" gradientUnits="userSpaceOnUse">
<stop stop-color="#DF0D1A"/>
<stop offset="1" stop-color="white"/>
</linearGradient>
<linearGradient id="paint1_linear_379_134" x1="7.9366" y1="19.8184" x2="7.97114" y2="23.1497" gradientUnits="userSpaceOnUse">
<stop stop-color="#DF0D1A"/>
<stop offset="1" stop-color="white"/>
</linearGradient>
<linearGradient id="paint2_linear_379_134" x1="17.9817" y1="19.8175" x2="18.0163" y2="23.1497" gradientUnits="userSpaceOnUse">
<stop stop-color="#DF0D1A"/>
<stop offset="1" stop-color="white"/>
</linearGradient>
</defs>
</svg>
