<svg width="50" height="43" viewBox="0 0 50 43" fill="none" xmlns="http://www.w3.org/2000/svg">
<path d="M48.9256 24.7805C48.2753 24.514 47.5267 24.6613 47.029 25.1542L41.7999 30.3326L31.281 29.4645L37.2976 20.5095C37.7569 19.826 37.6655 18.9167 37.0793 18.3362L24.9057 6.28082C24.3197 5.70036 23.4015 5.60982 22.711 6.06458L21.1222 7.1114C20.7817 5.41024 19.9423 3.84627 18.676 2.59241C16.988 0.920665 14.7435 0 12.3562 0C9.96888 0 7.72441 0.920665 6.03626 2.59241C2.55162 6.04332 2.55162 11.6583 6.03626 15.1093C6.44374 15.5129 6.8844 15.8716 7.35093 16.1851L2.58816 19.3233C1.1345 20.2809 0.201676 21.8171 0.0289168 23.5375C-0.144074 25.258 0.464933 26.946 1.69942 28.1685L14.9769 41.317C16.0735 42.403 17.5407 43 19.0725 43C19.2653 43 19.4591 42.9905 19.6532 42.9714C21.3907 42.8002 22.9418 41.8765 23.9089 40.437L25.1466 38.5949L41.7999 37.2206L47.0291 42.399C47.362 42.7287 47.8072 42.9038 48.26 42.9038C48.4843 42.9038 48.7104 42.8609 48.9256 42.7726C49.5759 42.5058 50 41.8775 50 41.1804V26.3729C50 25.6758 49.5759 25.0473 48.9256 24.7805ZM8.49747 12.672C6.36995 10.5651 6.36995 7.13668 8.49747 5.02971C9.52822 4.00908 10.8985 3.44701 12.3562 3.44701C13.8138 3.44701 15.184 4.00908 16.2148 5.02982C17.2455 6.05045 17.813 7.40749 17.813 8.85093C17.813 9.00352 17.8052 9.15495 17.7927 9.30535L10.6769 13.9939C9.864 13.7344 9.11878 13.2872 8.49747 12.672Z" fill="url(#paint0_linear_451_3798)"/>
<defs>
<linearGradient id="paint0_linear_451_3798" x1="25" y1="0" x2="25.5853" y2="65.6556" gradientUnits="userSpaceOnUse">
<stop stop-color="#DF0D1A"/>
<stop offset="1" stop-color="white"/>
</linearGradient>
</defs>
</svg>
