<svg width="29" height="29" viewBox="0 0 29 29" fill="none" xmlns="http://www.w3.org/2000/svg">
<path d="M18.4498 13.1189C17.3787 13.1189 16.5077 13.9899 16.5077 15.061H15.5367C15.5367 13.6295 16.5751 12.4387 17.938 12.196C17.7196 10.2596 16.0737 8.74919 14.0801 8.74919C13.4965 8.74919 12.9265 8.88598 12.4059 9.13562C12.5439 9.6318 12.6236 10.1519 12.6236 10.6913H11.6525C11.6525 8.01403 9.47431 5.83606 6.7973 5.83606C4.12006 5.83606 1.94209 8.01403 1.94209 10.6913C1.94209 11.1948 2.02174 11.6865 2.17157 12.1595C3.67105 12.2775 4.85522 13.5321 4.85522 15.061H3.88417C3.88417 13.9899 3.01317 13.1189 1.94209 13.1189C0.870999 13.1189 0 13.9899 0 15.061C0 16.1321 0.870999 17.0031 1.94209 17.0031H8.25387V13.1189C8.25387 12.0478 9.12487 11.1768 10.196 11.1768C11.267 11.1768 12.138 12.0478 12.138 13.1189V17.0031H18.4498C19.5209 17.0031 20.3919 16.1321 20.3919 15.061C20.3919 13.9899 19.5209 13.1189 18.4498 13.1189Z" fill="url(#paint0_linear_379_223)"/>
<path d="M11.3595 24.684L11.1668 24.5385V13.1185C11.1668 12.583 10.7313 12.1475 10.1957 12.1475C9.66019 12.1475 9.22469 12.583 9.22469 13.1185V14.0895H10.1957V15.0606H9.22469V16.0316H10.1957V17.0027H9.22469V17.9737H10.1957V18.9448H9.22469V19.9158H10.1957V20.8869H9.22469V21.8579H10.1957V22.8289H9.22469V24.538L9.03243 24.684C8.43027 25.1394 8.15218 25.8533 8.28755 26.5941C8.42695 27.3549 9.0246 27.971 9.77422 28.1261C10.3742 28.2512 10.9584 28.1114 11.4207 27.7351C11.8766 27.3636 12.1378 26.8146 12.1378 26.2276C12.1378 25.6202 11.8543 25.0574 11.3595 24.684ZM10.6813 26.7131H9.71021V25.7421H10.6813V26.7131Z" fill="url(#paint1_linear_379_223)"/>
<path d="M24.762 8.74894C24.762 5.80428 22.3659 3.4082 19.4213 3.4082C16.8358 3.4082 14.6287 5.2896 14.1699 7.78217C16.6556 7.82792 18.6899 9.7482 18.9135 12.1879C19.8767 12.3427 20.6816 12.9695 21.0846 13.8246C23.2694 13.1141 24.762 11.0848 24.762 8.74894Z" fill="url(#paint2_linear_379_223)"/>
<path d="M27.1339 11.4529C27.4632 11.3699 28.0758 11.2151 28.1702 11.0757C28.1415 10.9558 27.7064 10.5319 27.472 10.3043C26.9758 9.82115 26.4625 9.32211 26.4625 8.74911C26.4625 8.17611 26.9758 7.67707 27.472 7.19392C27.706 6.96633 28.1415 6.54245 28.1604 6.38077C28.0758 6.28262 27.4627 6.12781 27.1339 6.04484C26.4469 5.8713 25.7983 5.70772 25.5216 5.2286C25.2404 4.74261 25.4234 4.09256 25.6176 3.4041C25.7084 3.08264 25.8765 2.48451 25.807 2.33397C25.6906 2.29509 25.088 2.46198 24.7661 2.55231C24.0771 2.74718 23.4261 2.92972 22.9411 2.64856C22.4622 2.37166 22.2986 1.72303 22.1248 1.036C22.0419 0.706946 21.8871 0.0941172 21.7477 0C21.6277 0.0286856 21.2038 0.463711 20.976 0.698174C20.4931 1.19436 19.9938 1.70715 19.421 1.70715C18.8485 1.70715 18.349 1.19389 17.8659 0.6977C17.638 0.463711 17.2144 0.0282115 17.0527 0.00924579C16.9546 0.0936431 16.7997 0.706946 16.7165 1.03553C16.5432 1.72256 16.3797 2.37119 15.9005 2.64808C15.4155 2.92925 14.7647 2.74671 14.0758 2.55183C13.7546 2.46151 13.1553 2.29366 13.0059 2.36265C12.9656 2.48403 13.1339 3.08216 13.2242 3.40339C13.4184 4.09256 13.6014 4.74261 13.3205 5.2286C13.0436 5.70725 12.395 5.87083 11.7079 6.04484C11.4064 6.12094 10.8708 6.25749 10.7108 6.38693C11.2753 6.90067 11.7376 7.52227 12.0664 8.22091C12.4208 8.05923 12.793 7.94568 13.1761 7.87313C13.6074 4.79595 16.2753 2.43685 19.421 2.43685C22.9012 2.43685 25.7328 5.26843 25.7328 8.74864C25.7328 11.5219 23.951 13.9291 21.347 14.7584C21.3577 14.858 21.3631 14.9585 21.3631 15.0604C21.3631 15.6628 21.1792 16.2237 20.8643 16.6889C20.9013 16.7268 20.9383 16.7607 20.975 16.7991C21.2033 17.0331 21.6277 17.4695 21.7894 17.4885C21.8875 17.4041 22.0423 16.7908 22.1253 16.462C22.2986 15.7752 22.4622 15.1263 22.9416 14.8497C23.4266 14.569 24.0771 14.7515 24.7661 14.9459C25.0875 15.0362 25.6852 15.2036 25.8362 15.1351C25.8765 15.0137 25.7079 14.4156 25.6176 14.0941C25.4234 13.4052 25.2404 12.7551 25.5216 12.2691C25.7983 11.79 26.4469 11.6262 27.1339 11.4529Z" fill="url(#paint3_linear_379_223)"/>
<defs>
<linearGradient id="paint0_linear_379_223" x1="10.196" y1="5.83606" x2="10.3524" y2="24.1159" gradientUnits="userSpaceOnUse">
<stop stop-color="#6AA589"/>
<stop offset="1" stop-color="white"/>
</linearGradient>
<linearGradient id="paint1_linear_379_223" x1="10.1959" y1="12.1475" x2="11.8798" y2="38.2703" gradientUnits="userSpaceOnUse">
<stop stop-color="#6AA589"/>
<stop offset="1" stop-color="white"/>
</linearGradient>
<linearGradient id="paint2_linear_379_223" x1="19.466" y1="3.4082" x2="19.7279" y2="20.4566" gradientUnits="userSpaceOnUse">
<stop stop-color="#6AA589"/>
<stop offset="1" stop-color="white"/>
</linearGradient>
<linearGradient id="paint3_linear_379_223" x1="19.4405" y1="-1.33261e-08" x2="19.8885" y2="28.623" gradientUnits="userSpaceOnUse">
<stop stop-color="#6AA589"/>
<stop offset="1" stop-color="white"/>
</linearGradient>
</defs>
</svg>
