<svg width="24" height="24" viewBox="0 0 24 24" fill="none" xmlns="http://www.w3.org/2000/svg">
<path d="M13.0169 9.46681V0H0V23.667H16.5669V17.7502H20.1169V23.667H23.667V9.46681H13.0169ZM4.73338 20.1169H2.36672V17.7502H4.73343L4.73338 20.1169ZM4.73338 15.3835H2.36672V13.0168H4.73343L4.73338 15.3835ZM4.73338 10.6501H2.36672V8.28342H4.73343L4.73338 10.6501ZM4.73338 5.91676H2.36672V3.55005H4.73343L4.73338 5.91676ZM10.6501 20.1169H8.28342V17.7502H10.6501V20.1169ZM10.6501 15.3835H8.28342V13.0168H10.6501V15.3835ZM10.6501 10.6501H8.28342V8.28342H10.6501V10.6501ZM10.6501 5.91676H8.28342V3.55005H10.6501V5.91676ZM21.3003 14.2002H15.3835V11.8335H21.3003V14.2002Z" fill="url(#paint0_linear_379_106)"/>
<defs>
<linearGradient id="paint0_linear_379_106" x1="11.8335" y1="0" x2="12.2081" y2="36.1355" gradientUnits="userSpaceOnUse">
<stop stop-color="#DF0D1A"/>
<stop offset="1" stop-color="white"/>
</linearGradient>
</defs>
</svg>
