<svg width="40" height="56" viewBox="0 0 40 56" fill="none" xmlns="http://www.w3.org/2000/svg">
<path d="M32.9129 46.7353C32.6474 45.9388 32.138 45.2461 31.4569 44.7552C30.7758 44.2643 29.9575 44.0002 29.1179 44.0003H24.0009V41.1133C21.3592 41.6293 18.6426 41.6293 16.0009 41.1133V44.0003H10.8839C10.0443 44.0002 9.22605 44.2643 8.54493 44.7552C7.86382 45.2461 7.35442 45.9388 7.08891 46.7353L4.43991 54.6843C4.38987 54.8345 4.37623 54.9945 4.40011 55.1511C4.42399 55.3076 4.48471 55.4563 4.57728 55.5848C4.66984 55.7133 4.79161 55.818 4.93254 55.8902C5.07347 55.9624 5.22954 56.0002 5.38791 56.0003H34.6139C34.7723 56.0002 34.9284 55.9624 35.0693 55.8902C35.2102 55.818 35.332 55.7133 35.4245 55.5848C35.5171 55.4563 35.5778 55.3076 35.6017 55.1511C35.6256 54.9945 35.612 54.8345 35.5619 54.6843L32.9129 46.7353ZM12.0009 52.0003C11.6054 52.0003 11.2187 51.883 10.8898 51.6632C10.5609 51.4435 10.3045 51.1311 10.1532 50.7656C10.0018 50.4002 9.96217 49.9981 10.0393 49.6101C10.1165 49.2221 10.307 48.8658 10.5867 48.5861C10.8664 48.3064 11.2228 48.1159 11.6107 48.0387C11.9987 47.9615 12.4008 48.0011 12.7663 48.1525C13.1317 48.3039 13.4441 48.5602 13.6639 48.8891C13.8836 49.218 14.0009 49.6047 14.0009 50.0003C14.0009 50.5307 13.7902 51.0394 13.4151 51.4145C13.0401 51.7896 12.5313 52.0003 12.0009 52.0003ZM20.0009 52.0003C19.6054 52.0003 19.2187 51.883 18.8898 51.6632C18.5609 51.4435 18.3045 51.1311 18.1532 50.7656C18.0018 50.4002 17.9622 49.9981 18.0393 49.6101C18.1165 49.2221 18.307 48.8658 18.5867 48.5861C18.8664 48.3064 19.2228 48.1159 19.6107 48.0387C19.9987 47.9615 20.4008 48.0011 20.7663 48.1525C21.1317 48.3039 21.4441 48.5602 21.6639 48.8891C21.8836 49.218 22.0009 49.6047 22.0009 50.0003C22.0009 50.5307 21.7902 51.0394 21.4151 51.4145C21.0401 51.7896 20.5313 52.0003 20.0009 52.0003ZM28.0009 52.0003C27.6054 52.0003 27.2187 51.883 26.8898 51.6632C26.5609 51.4435 26.3045 51.1311 26.1532 50.7656C26.0018 50.4002 25.9622 49.9981 26.0393 49.6101C26.1165 49.2221 26.307 48.8658 26.5867 48.5861C26.8664 48.3064 27.2228 48.1159 27.6107 48.0387C27.9987 47.9615 28.4008 48.0011 28.7663 48.1525C29.1317 48.3039 29.4441 48.5602 29.6639 48.8891C29.8836 49.218 30.0009 49.6047 30.0009 50.0003C30.0009 50.5307 29.7902 51.0394 29.4151 51.4145C29.0401 51.7896 28.5313 52.0003 28.0009 52.0003Z" fill="url(#paint0_linear_451_3759)"/>
<path d="M20 40C23.9556 40 27.8224 38.827 31.1114 36.6294C34.4004 34.4318 36.9638 31.3082 38.4776 27.6537C39.9913 23.9992 40.3874 19.9778 39.6157 16.0982C38.844 12.2186 36.9392 8.65492 34.1421 5.85787C31.3451 3.06082 27.7814 1.15601 23.9018 0.384303C20.0222 -0.387401 16.0009 0.00866568 12.3463 1.52242C8.69181 3.03617 5.56824 5.59962 3.37061 8.8886C1.17298 12.1776 0 16.0444 0 20C0 25.3043 2.10714 30.3914 5.85786 34.1421C9.60859 37.8929 14.6957 40 20 40ZM16 20C16 19.2089 16.2346 18.4355 16.6741 17.7777C17.1136 17.1199 17.7384 16.6072 18.4693 16.3045C19.2002 16.0017 20.0044 15.9225 20.7804 16.0769C21.5563 16.2312 22.269 16.6122 22.8284 17.1716C23.3878 17.731 23.7688 18.4437 23.9231 19.2196C24.0775 19.9956 23.9983 20.7998 23.6955 21.5307C23.3928 22.2616 22.8801 22.8864 22.2223 23.3259C21.5645 23.7654 20.7911 24 20 24C18.9391 24 17.9217 23.5786 17.1716 22.8284C16.4214 22.0783 16 21.0609 16 20ZM34.25 22.52C33.7512 25.3278 32.4331 27.9254 30.4615 29.9859C28.49 32.0464 25.9531 33.4778 23.17 34.1C23.0067 34.1359 22.837 34.1299 22.6766 34.0827C22.5162 34.0354 22.3704 33.9483 22.2526 33.8296C22.1349 33.7109 22.0491 33.5643 22.0032 33.4036C21.9573 33.2428 21.9527 33.073 21.99 32.91C22.5272 30.349 22.5067 27.7024 21.93 25.15C22.9774 24.7554 23.88 24.0513 24.5177 23.1314C25.1554 22.2115 25.498 21.1193 25.5 20C25.5 19.85 25.49 19.7 25.48 19.55L31.03 19.09C31.4816 19.0492 31.9365 19.1117 32.3604 19.2728C32.7842 19.434 33.1657 19.6896 33.4761 20.0201C33.7864 20.3507 34.0174 20.7476 34.1515 21.1808C34.2856 21.6139 34.3193 22.0719 34.25 22.52ZM15.06 6.40001C17.7404 5.42497 20.6496 5.26554 23.4205 5.94181C26.1915 6.61809 28.7001 8.09978 30.63 10.2C30.7417 10.325 30.8204 10.4759 30.859 10.639C30.8977 10.8021 30.895 10.9723 30.8513 11.1341C30.8077 11.296 30.7243 11.4444 30.6088 11.5659C30.4934 11.6874 30.3494 11.7782 30.19 11.83C27.6985 12.6329 25.4144 13.9746 23.5 15.76C22.5768 14.9963 21.4292 14.5555 20.2321 14.5049C19.035 14.4544 17.8543 14.7968 16.87 15.48L13.7 10.9C13.4391 10.5296 13.266 10.1046 13.1938 9.65736C13.1216 9.21009 13.1522 8.75225 13.2833 8.31856C13.4144 7.88487 13.6425 7.48672 13.9503 7.15431C14.2581 6.82189 14.6376 6.56394 15.06 6.40001ZM6.2 15.7C6.25129 15.54 6.34204 15.3956 6.46389 15.2799C6.58574 15.1643 6.73475 15.0812 6.89718 15.0384C7.05961 14.9955 7.23021 14.9943 7.39324 15.0348C7.55627 15.0753 7.70648 15.1562 7.83 15.27C9.77891 17.0165 12.0811 18.3228 14.58 19.1C14.5277 19.3972 14.5009 19.6983 14.5 20C14.5005 21.0417 14.7968 22.0618 15.3545 22.9417C15.9121 23.8215 16.7082 24.5249 17.65 24.97L15.27 30.01C15.0786 30.4206 14.7965 30.7823 14.4448 31.0679C14.0932 31.3535 13.6812 31.5554 13.2401 31.6585C12.799 31.7615 12.3402 31.763 11.8985 31.6628C11.4567 31.5626 11.0435 31.3633 10.69 31.08C8.50976 29.2438 6.92048 26.8045 6.12167 24.0683C5.32286 21.332 5.35011 18.4208 6.2 15.7Z" fill="url(#paint1_linear_451_3759)"/>
<defs>
<linearGradient id="paint0_linear_451_3759" x1="20.0009" y1="41.1133" x2="20.1133" y2="63.8451" gradientUnits="userSpaceOnUse">
<stop stop-color="#DF0D1A"/>
<stop offset="1" stop-color="white"/>
</linearGradient>
<linearGradient id="paint1_linear_451_3759" x1="20" y1="0" x2="20.6331" y2="61.0733" gradientUnits="userSpaceOnUse">
<stop stop-color="#DF0D1A"/>
<stop offset="1" stop-color="white"/>
</linearGradient>
</defs>
</svg>
