<svg width="26" height="26" viewBox="0 0 26 26" fill="none" xmlns="http://www.w3.org/2000/svg">
<path d="M10.3257 13.2805C9.86197 13.3537 9.39136 13.3736 8.92308 13.3398C8.66984 13.3195 8.44571 13.2976 8.2443 13.2781C7.30879 13.1875 7.0201 13.1715 6.60576 13.4114C6.45474 13.5305 6.33263 13.6822 6.24859 13.8551C6.16455 14.0281 6.12076 14.2179 6.1205 14.4102C6.08988 15.1139 6.27212 15.8105 6.64341 16.409C6.85818 16.8435 7.17036 17.2226 7.55563 17.5166C7.94091 17.8107 8.38887 18.0118 8.86462 18.1043C9.18908 18.1783 9.52761 18.162 9.84345 18.0571C10.1593 17.9523 10.4404 17.7629 10.6562 17.5096L12.2604 15.5844C11.7454 15.4363 11.2862 15.138 10.9416 14.7276C10.597 14.3172 10.3825 13.8134 10.3257 13.2805Z" fill="url(#paint0_linear_379_213)"/>
<path d="M13.0001 14.7932C13.9904 14.7932 14.7932 13.9904 14.7932 13.0001C14.7932 12.0098 13.9904 11.207 13.0001 11.207C12.0098 11.207 11.207 12.0098 11.207 13.0001C11.207 13.9904 12.0098 14.7932 13.0001 14.7932Z" fill="url(#paint1_linear_379_213)"/>
<path d="M13 10.3099C13.3775 10.3101 13.7506 10.3902 14.0948 10.5451C14.2637 10.1064 14.4819 9.68832 14.7452 9.29889C14.8894 9.08986 15.0203 8.90665 15.1379 8.74204C15.6844 7.97683 15.842 7.73476 15.842 7.25605C15.842 6.65675 14.9109 5.78974 13.227 5.78974C12.7434 5.75853 12.2591 5.83937 11.8118 6.02598C11.3645 6.21259 10.9664 6.49992 10.6483 6.8656C10.422 7.10961 10.2668 7.41097 10.1996 7.73696C10.1324 8.06295 10.1558 8.40112 10.2673 8.71474L11.1325 11.0677C11.6326 10.5816 12.3026 10.3097 13 10.3099Z" fill="url(#paint2_linear_379_213)"/>
<path d="M13.0007 4.03516C11.2275 4.03516 9.49407 4.56097 8.0197 5.54612C6.54533 6.53126 5.3962 7.93148 4.71762 9.56972C4.03904 11.208 3.86149 13.0106 4.20743 14.7498C4.55337 16.4889 5.40725 18.0864 6.6611 19.3403C7.91495 20.5941 9.51245 21.448 11.2516 21.7939C12.9907 22.1399 14.7934 21.9623 16.4316 21.2837C18.0699 20.6052 19.4701 19.456 20.4552 17.9816C21.4404 16.5073 21.9662 14.7739 21.9662 13.0007C21.9635 10.6237 21.018 8.34488 19.3372 6.66411C17.6565 4.98334 15.3776 4.03789 13.0007 4.03516ZM20.3342 13.7335C20.5353 14.3136 20.6014 14.9319 20.5275 15.5414C20.4536 16.1508 20.2415 16.7354 19.9076 17.2506C19.0923 18.6624 17.9102 19.3234 16.9557 19.3234C16.6585 19.3283 16.3651 19.2548 16.1053 19.1102C15.4235 18.7164 15.19 18.2029 14.8027 17.3521C14.7209 17.1717 14.6296 16.9711 14.523 16.7465C14.318 16.3257 14.0578 15.9342 13.7493 15.5822C13.6224 15.6187 13.4929 15.6458 13.362 15.6632L11.3448 18.0834C11.094 18.3871 10.7784 18.6308 10.4211 18.7964C10.0637 18.962 9.67381 19.0455 9.27999 19.0406C9.08506 19.0402 8.89058 19.0218 8.69907 18.9854C8.09617 18.8695 7.52768 18.6175 7.03685 18.2487C6.54603 17.8799 6.14582 17.404 5.86668 16.8572C5.39679 16.1022 5.17343 15.2197 5.22757 14.3321C5.23495 13.9953 5.32331 13.6652 5.48519 13.3698C5.64708 13.0744 5.87772 12.8223 6.15761 12.6348C6.83899 12.2408 7.40086 12.2956 8.3309 12.3857C8.52814 12.405 8.7478 12.4261 8.99542 12.4464C9.46286 12.478 9.93243 12.4482 10.3921 12.3577C10.4231 12.2291 10.4637 12.1029 10.5135 11.9804L9.42684 9.02563C9.25783 8.56265 9.21898 8.06219 9.31454 7.57868C9.41009 7.09516 9.63638 6.6471 9.96881 6.28322C10.3706 5.81907 10.873 5.45272 11.4377 5.21205C12.0025 4.97139 12.6147 4.86275 13.2278 4.89441C15.3967 4.89441 16.7393 6.1208 16.7393 7.25727C16.7393 8.04458 16.4115 8.50384 15.8682 9.26443C15.753 9.42554 15.6248 9.60512 15.4836 9.80949C15.2223 10.1984 15.0133 10.62 14.8619 11.0634C14.9564 11.1546 15.0441 11.2524 15.1244 11.3563L18.2304 11.8933C18.7158 11.9783 19.1686 12.1949 19.5395 12.5193C19.9104 12.8438 20.1853 13.2637 20.3342 13.7335Z" fill="url(#paint3_linear_379_213)"/>
<path d="M15.606 12.3486C15.7389 12.8685 15.7118 13.4165 15.528 13.9207C15.3442 14.4249 15.0125 14.8618 14.5762 15.1742C14.8722 15.5401 15.1257 15.9384 15.3318 16.3615C15.4406 16.5909 15.5338 16.7958 15.6177 16.9801C16.0071 17.8363 16.1377 18.0936 16.5523 18.3328C17.0708 18.6325 18.2881 18.2593 19.1297 16.8015C19.3985 16.3982 19.5706 15.9383 19.6326 15.4576C19.6946 14.9769 19.6448 14.4883 19.4871 14.03C19.389 13.712 19.2056 13.4269 18.9568 13.2058C18.7081 12.9847 18.4035 12.836 18.0762 12.7758L15.606 12.3486Z" fill="url(#paint4_linear_379_213)"/>
<path d="M13 0C9.55219 0 6.24558 1.36964 3.80761 3.80761C1.36964 6.24558 0 9.55219 0 13C0 16.4478 1.36964 19.7544 3.80761 22.1924C6.24558 24.6304 9.55219 26 13 26C16.4478 26 19.7544 24.6304 22.1924 22.1924C24.6304 19.7544 26 16.4478 26 13C26 9.55219 24.6304 6.24558 22.1924 3.80761C19.7544 1.36964 16.4478 0 13 0ZM13 0.896552C13.133 0.896552 13.263 0.935988 13.3736 1.00987C13.4842 1.08376 13.5703 1.18878 13.6212 1.31164C13.6721 1.43451 13.6854 1.56971 13.6595 1.70015C13.6335 1.83058 13.5695 1.9504 13.4755 2.04443C13.3814 2.13847 13.2616 2.20251 13.1312 2.22846C13.0007 2.2544 12.8655 2.24109 12.7427 2.19019C12.6198 2.1393 12.5148 2.05312 12.4409 1.94254C12.367 1.83196 12.3276 1.70196 12.3276 1.56897C12.3276 1.39063 12.3984 1.2196 12.5245 1.0935C12.6506 0.967395 12.8217 0.896552 13 0.896552ZM1.56897 13.6724C1.43597 13.6724 1.30597 13.633 1.19539 13.5591C1.08481 13.4852 0.99863 13.3802 0.947736 13.2573C0.896843 13.1345 0.883527 12.9993 0.909472 12.8688C0.935417 12.7384 0.999458 12.6186 1.0935 12.5245C1.18754 12.4305 1.30735 12.3665 1.43778 12.3405C1.56822 12.3146 1.70342 12.3279 1.82629 12.3788C1.94915 12.4297 2.05417 12.5158 2.12806 12.6264C2.20194 12.737 2.24138 12.867 2.24138 13C2.24138 13.1783 2.17054 13.3494 2.04443 13.4755C1.91833 13.6016 1.7473 13.6724 1.56897 13.6724ZM13 25.1034C12.867 25.1034 12.737 25.064 12.6264 24.9901C12.5158 24.9162 12.4297 24.8112 12.3788 24.6884C12.3279 24.5655 12.3146 24.4303 12.3405 24.2999C12.3665 24.1694 12.4305 24.0496 12.5245 23.9556C12.6186 23.8615 12.7384 23.7975 12.8688 23.7715C12.9993 23.7456 13.1345 23.7589 13.2573 23.8098C13.3802 23.8607 13.4852 23.9469 13.5591 24.0575C13.633 24.168 13.6724 24.298 13.6724 24.431C13.6724 24.6094 13.6016 24.7804 13.4755 24.9065C13.3494 25.0326 13.1783 25.1034 13 25.1034ZM13 22.8621C11.0495 22.8621 9.14274 22.2837 7.52093 21.2C5.89912 20.1164 4.63507 18.5761 3.88864 16.7741C3.1422 14.972 2.9469 12.9891 3.32743 11.076C3.70796 9.16295 4.64723 7.4057 6.02646 6.02646C7.4057 4.64723 9.16295 3.70796 11.076 3.32743C12.9891 2.9469 14.972 3.1422 16.7741 3.88864C18.5761 4.63507 20.1164 5.89912 21.2 7.52093C22.2837 9.14274 22.8621 11.0495 22.8621 13C22.8591 15.6147 21.8191 18.1214 19.9703 19.9703C18.1214 21.8191 15.6147 22.8591 13 22.8621ZM24.431 13.6724C24.298 13.6724 24.168 13.633 24.0575 13.5591C23.9469 13.4852 23.8607 13.3802 23.8098 13.2573C23.7589 13.1345 23.7456 12.9993 23.7715 12.8688C23.7975 12.7384 23.8615 12.6186 23.9556 12.5245C24.0496 12.4305 24.1694 12.3665 24.2999 12.3405C24.4303 12.3146 24.5655 12.3279 24.6884 12.3788C24.8112 12.4297 24.9162 12.5158 24.9901 12.6264C25.064 12.737 25.1034 12.867 25.1034 13C25.1034 13.1783 25.0326 13.3494 24.9065 13.4755C24.7804 13.6016 24.6094 13.6724 24.431 13.6724Z" fill="url(#paint5_linear_379_213)"/>
<defs>
<linearGradient id="paint0_linear_379_213" x1="9.18882" y1="13.2168" x2="9.29013" y2="21.2914" gradientUnits="userSpaceOnUse">
<stop stop-color="#6AA589"/>
<stop offset="1" stop-color="white"/>
</linearGradient>
<linearGradient id="paint1_linear_379_213" x1="13.0001" y1="11.207" x2="13.0918" y2="17.0765" gradientUnits="userSpaceOnUse">
<stop stop-color="#6AA589"/>
<stop offset="1" stop-color="white"/>
</linearGradient>
<linearGradient id="paint2_linear_379_213" x1="13.0021" y1="5.7832" x2="13.1278" y2="14.4325" gradientUnits="userSpaceOnUse">
<stop stop-color="#6AA589"/>
<stop offset="1" stop-color="white"/>
</linearGradient>
<linearGradient id="paint3_linear_379_213" x1="13.0007" y1="4.03516" x2="13.4592" y2="33.3824" gradientUnits="userSpaceOnUse">
<stop stop-color="#6AA589"/>
<stop offset="1" stop-color="white"/>
</linearGradient>
<linearGradient id="paint4_linear_379_213" x1="17.1173" y1="12.3486" x2="17.3033" y2="22.2988" gradientUnits="userSpaceOnUse">
<stop stop-color="#6AA589"/>
<stop offset="1" stop-color="white"/>
</linearGradient>
<linearGradient id="paint5_linear_379_213" x1="13" y1="-1.98118e-08" x2="13.6649" y2="42.5535" gradientUnits="userSpaceOnUse">
<stop stop-color="#6AA589"/>
<stop offset="1" stop-color="white"/>
</linearGradient>
</defs>
</svg>
