<svg width="23" height="23" viewBox="0 0 23 23" fill="none" xmlns="http://www.w3.org/2000/svg">
<path d="M19.55 17.25V14.95H18.4L17.25 5.75H14.95L13.8 14.95H12.65V17.25H10.35V14.95H9.20001L8.04998 5.75H5.75001L4.59998 14.95H3.45V17.25H0V23H23V17.25H19.55Z" fill="url(#paint0_linear_379_151)"/>
<path d="M11.5008 0C9.54576 0 8.05078 1.49498 8.05078 3.45H10.3508C12.3058 3.45 13.8008 1.95502 13.8008 0H11.5008Z" fill="url(#paint1_linear_379_151)"/>
<path d="M20.7 0C18.745 0 17.25 1.49498 17.25 3.45H19.55C21.505 3.45 23 1.95502 23 0H20.7Z" fill="url(#paint2_linear_379_151)"/>
<defs>
<linearGradient id="paint0_linear_379_151" x1="11.5" y1="5.75" x2="11.7048" y2="32.0891" gradientUnits="userSpaceOnUse">
<stop stop-color="#DF0D1A"/>
<stop offset="1" stop-color="white"/>
</linearGradient>
<linearGradient id="paint1_linear_379_151" x1="10.9258" y1="0" x2="10.9586" y2="5.26793" gradientUnits="userSpaceOnUse">
<stop stop-color="#DF0D1A"/>
<stop offset="1" stop-color="white"/>
</linearGradient>
<linearGradient id="paint2_linear_379_151" x1="20.125" y1="0" x2="20.1578" y2="5.26793" gradientUnits="userSpaceOnUse">
<stop stop-color="#DF0D1A"/>
<stop offset="1" stop-color="white"/>
</linearGradient>
</defs>
</svg>
