<svg width="22" height="22" viewBox="0 0 22 22" fill="none" xmlns="http://www.w3.org/2000/svg">
<path d="M21.3555 10.3984H20.1738V8.30887C20.2402 8.25335 20.3093 8.18967 20.3822 8.11624C20.5505 7.94668 20.8086 7.65484 21.0827 7.22747C21.5012 6.57508 22 5.53704 22 4.29688C22 3.05671 21.5012 2.01867 21.0827 1.36628C20.8086 0.93891 20.5504 0.647066 20.3822 0.477512C20.0499 0.142828 19.7949 0 19.5293 0C19.2637 0 19.0086 0.142828 18.6764 0.477512C18.6272 0.527055 18.5702 0.587383 18.5075 0.658152C18.5102 0.662277 18.5128 0.666188 18.5154 0.670313C19.027 1.46786 19.6367 2.74441 19.6367 4.29688C19.6367 5.84934 19.027 7.12589 18.5154 7.92339C18.5128 7.92752 18.5102 7.93147 18.5075 7.93555C18.5702 8.00632 18.6273 8.06665 18.6764 8.11624C18.7493 8.18971 18.8183 8.25339 18.8848 8.30887V10.3984H16.5215V8.30887C16.5879 8.25335 16.6569 8.18967 16.7298 8.11624C16.8981 7.94668 17.1563 7.65484 17.4304 7.22747C17.8488 6.57508 18.3477 5.53704 18.3477 4.29688C18.3477 3.05671 17.8488 2.01867 17.4304 1.36628C17.1563 0.93891 16.8981 0.647066 16.7298 0.477512C16.3976 0.142828 16.1425 0 15.877 0C15.6114 0 15.3563 0.142828 15.0241 0.477512C14.8558 0.647066 14.5976 0.93891 14.3235 1.36628C13.9051 2.01867 13.4062 3.05671 13.4062 4.29688C13.4062 5.53704 13.9051 6.57508 14.3235 7.22747C14.5976 7.65484 14.8558 7.94668 15.0241 8.11624C15.097 8.18971 15.166 8.25339 15.2324 8.30887V10.3984H13.4658C11.6426 10.3984 9.90851 11.1853 8.708 12.5574C7.99704 13.3699 6.97009 13.8359 5.89041 13.8359H3.86719V11.3373C3.97603 11.2545 4.09862 11.1466 4.23835 11.0058C4.4669 10.7756 4.81796 10.3785 5.19239 9.79477C5.76396 8.9036 6.44531 7.4873 6.44531 5.80078C6.44531 4.11426 5.76396 2.69796 5.19234 1.80679C4.81791 1.22306 4.46686 0.825988 4.23831 0.595719C3.71736 0.0707695 3.43256 0 3.22266 0C3.01275 0 2.72796 0.0707695 2.20696 0.595719C1.97841 0.825988 1.62736 1.22306 1.25293 1.80679C0.681355 2.69796 0 4.11426 0 5.80078C0 7.4873 0.681355 8.9036 1.25297 9.79477C1.6274 10.3785 1.97845 10.7756 2.207 11.0058C2.3467 11.1466 2.46929 11.2545 2.57817 11.3373V13.8359H0.644531C0.288578 13.8359 0 14.1245 0 14.4805V16.4141H6.47543C7.92683 16.4141 9.30742 15.7876 10.2632 14.6953C11.2189 13.603 12.5994 12.9766 14.0508 12.9766H22V11.043C22 10.687 21.7114 10.3984 21.3555 10.3984Z" fill="url(#paint0_linear_379_131)"/>
<path d="M11.2333 15.5441C10.0327 16.9162 8.29856 17.7031 6.47543 17.7031H0V21.3555C0 21.7114 0.288578 22 0.644531 22H21.3555C21.7114 22 22 21.7114 22 21.3555V14.2656H14.0508C12.9711 14.2656 11.9442 14.7316 11.2333 15.5441ZM18.7773 18.1328C19.1333 18.1328 19.4219 18.4214 19.4219 18.7773C19.4219 19.1333 19.1333 19.4219 18.7773 19.4219C18.4214 19.4219 18.1328 19.1333 18.1328 18.7773C18.1328 18.4214 18.4214 18.1328 18.7773 18.1328ZM16.5215 15.5547C16.8774 15.5547 17.166 15.8433 17.166 16.1992C17.166 16.5552 16.8774 16.8438 16.5215 16.8438C16.1655 16.8438 15.877 16.5552 15.877 16.1992C15.877 15.8433 16.1655 15.5547 16.5215 15.5547ZM14.9102 18.7773C14.9102 19.1333 14.6216 19.4219 14.2656 19.4219C13.9097 19.4219 13.6211 19.1333 13.6211 18.7773C13.6211 18.4214 13.9097 18.1328 14.2656 18.1328C14.6216 18.1328 14.9102 18.4214 14.9102 18.7773Z" fill="url(#paint1_linear_379_131)"/>
<defs>
<linearGradient id="paint0_linear_379_131" x1="11" y1="0" x2="11.1938" y2="25.0627" gradientUnits="userSpaceOnUse">
<stop stop-color="#DF0D1A"/>
<stop offset="1" stop-color="white"/>
</linearGradient>
<linearGradient id="paint1_linear_379_131" x1="11" y1="14.2656" x2="11.043" y2="26.0758" gradientUnits="userSpaceOnUse">
<stop stop-color="#DF0D1A"/>
<stop offset="1" stop-color="white"/>
</linearGradient>
</defs>
</svg>
