<svg width="25" height="25" viewBox="0 0 25 25" fill="none" xmlns="http://www.w3.org/2000/svg">
<path d="M10.1582 5.91786H10.9032V13.9717H15.2039V18.8068H22.1947V14.017L12.1268 3.94922L10.1582 5.91786Z" fill="url(#paint0_linear_379_124)"/>
<path d="M22.1958 20.2266H15.2051V24.2328H24.2333V22.8129H22.1958V20.2266Z" fill="url(#paint1_linear_379_124)"/>
<path d="M12.1267 0L6.20898 5.91774H8.217L12.1267 2.00802L23.2281 13.1094L24.2321 12.1054L22.1945 10.0678V2.74863H18.2084V6.08165L12.1267 0Z" fill="url(#paint2_linear_379_124)"/>
<path d="M10.9043 15.3916H13.7852V24.233H10.9043V15.3916Z" fill="url(#paint3_linear_379_124)"/>
<path d="M9.53128 20.2263V7.29004H0V20.2263H9.53128V20.2263ZM4.70227 16.3672L3.66101 15.4417C3.92554 15.144 4.30512 14.9733 4.70241 14.9733C5.09979 14.9733 5.47937 15.144 5.74385 15.4417L4.70227 16.3672ZM4.70241 12.1261C5.87926 12.1261 7.00401 12.6322 7.78822 13.5147L6.7268 14.4579C6.21185 13.8784 5.47393 13.546 4.70241 13.546C3.93088 13.546 3.19292 13.8783 2.67792 14.4579L1.6166 13.5147C2.40081 12.6322 3.52555 12.1261 4.70241 12.1261Z" fill="url(#paint4_linear_379_124)"/>
<path d="M0 21.6465V22.813V24.2329H9.53128V21.6465H0Z" fill="url(#paint5_linear_379_124)"/>
<defs>
<linearGradient id="paint0_linear_379_124" x1="16.1764" y1="3.94922" x2="16.4667" y2="26.633" gradientUnits="userSpaceOnUse">
<stop stop-color="#DF0D1A"/>
<stop offset="1" stop-color="white"/>
</linearGradient>
<linearGradient id="paint1_linear_379_124" x1="19.7192" y1="20.2266" x2="19.7473" y2="26.344" gradientUnits="userSpaceOnUse">
<stop stop-color="#DF0D1A"/>
<stop offset="1" stop-color="white"/>
</linearGradient>
<linearGradient id="paint2_linear_379_124" x1="15.2205" y1="0" x2="15.3715" y2="20.0168" gradientUnits="userSpaceOnUse">
<stop stop-color="#DF0D1A"/>
<stop offset="1" stop-color="white"/>
</linearGradient>
<linearGradient id="paint3_linear_379_124" x1="12.3447" y1="15.3916" x2="12.7738" y2="28.8787" gradientUnits="userSpaceOnUse">
<stop stop-color="#DF0D1A"/>
<stop offset="1" stop-color="white"/>
</linearGradient>
<linearGradient id="paint4_linear_379_124" x1="4.76564" y1="7.29004" x2="5.0435" y2="27.0398" gradientUnits="userSpaceOnUse">
<stop stop-color="#DF0D1A"/>
<stop offset="1" stop-color="white"/>
</linearGradient>
<linearGradient id="paint5_linear_379_124" x1="4.76564" y1="21.6465" x2="4.77675" y2="25.5959" gradientUnits="userSpaceOnUse">
<stop stop-color="#DF0D1A"/>
<stop offset="1" stop-color="white"/>
</linearGradient>
</defs>
</svg>
