<svg width="19" height="24" viewBox="0 0 19 24" fill="none" xmlns="http://www.w3.org/2000/svg">
<path d="M18.211 11.2649C17.8053 11.2649 17.4764 11.5938 17.4764 11.9995V13.922C16.7699 14.2111 15.9873 14.279 15.2448 14.1256V0.734643C15.2448 0.328956 14.9159 0 14.5102 0C14.1044 0 13.7755 0.328956 13.7755 0.734643V3.58425H5.17035V0.734643C5.17035 0.328956 4.8414 0 4.43567 0C4.02993 0 3.70098 0.328956 3.70098 0.734643V13.1543C2.95794 13.045 2.19443 13.0924 1.46939 13.297V11.9995C1.46939 11.5938 1.14044 11.2649 0.734751 11.2649C0.329017 11.2649 6.10352e-05 11.5938 6.10352e-05 11.9995V14.3857V23.2644C6.10352e-05 23.6701 0.329017 23.999 0.734751 23.999H18.2109C18.6167 23.999 18.9456 23.67 18.9456 23.2644V14.3847V11.9995C18.9457 11.5938 18.6168 11.2649 18.211 11.2649ZM5.17035 5.05363H13.7755V7.68063H5.17035V5.05363ZM5.17035 9.14991H13.7755V11.7769H5.17035V9.14991ZM13.7755 13.2463V13.5351C13.4965 13.4135 13.2083 13.3173 12.9147 13.2463H13.7755ZM5.17035 13.2463H10.4008C9.95694 13.3536 9.52529 13.5183 9.11932 13.7413C7.99005 14.3614 6.58705 14.3614 5.45755 13.7412C5.36319 13.6893 5.26733 13.6409 5.17035 13.5953V13.2463ZM15.4286 19.3204C14.3468 19.9146 13.0025 19.9147 11.9205 19.3206C11.2746 18.9661 10.4724 18.9661 9.82664 19.3207C8.74485 19.9148 7.40058 19.915 6.31842 19.3209C5.67265 18.9664 4.87037 18.9664 4.2246 19.321C3.86892 19.5163 3.42236 19.3864 3.22704 19.0307C3.03172 18.6751 3.1617 18.2284 3.51737 18.0331C4.5993 17.439 5.94357 17.4389 7.02559 18.0329C7.67141 18.3875 8.47374 18.3874 9.11942 18.0328C10.2014 17.4387 11.5457 17.4387 12.6276 18.0327C13.2735 18.3872 14.0757 18.3872 14.7215 18.0326C15.0772 17.8372 15.5237 17.9673 15.719 18.3229C15.9143 18.6786 15.7843 19.1252 15.4286 19.3204Z" fill="url(#paint0_linear_379_195)"/>
<defs>
<linearGradient id="paint0_linear_379_195" x1="9.47282" y1="-1.8287e-08" x2="10.2501" y2="39.2727" gradientUnits="userSpaceOnUse">
<stop stop-color="#6AA589"/>
<stop offset="1" stop-color="white"/>
</linearGradient>
</defs>
</svg>
