<svg width="15" height="19" viewBox="0 0 15 19" fill="none" xmlns="http://www.w3.org/2000/svg">
<path d="M13.4074 17.1288C12.8799 17.7332 9.08186 21.523 3.36025 12.6985C-2.66953 3.39661 0.943917 0.848117 2.513 0.218892C2.51358 0.218661 2.51394 0.21815 2.51401 0.217534C2.51408 0.216917 2.51449 0.216389 2.51507 0.216159C2.53964 0.20638 2.56418 0.198818 2.58912 0.189396C2.63308 0.172686 2.67431 0.15807 2.71451 0.144199C2.73174 0.138706 2.74982 0.131957 2.76724 0.126465C2.96228 0.0629022 3.09473 0.0371931 3.12287 0.0320786C3.12555 0.03159 3.12829 0.0316288 3.12781 0.0343172C3.12736 0.0368205 3.12925 0.0413565 3.13176 0.040926C4.16938 -0.137252 5.14147 0.271149 5.32769 1.17265L5.65556 3.2229C5.87853 4.29981 5.0178 5.59367 3.73335 6.11402C3.67436 6.13772 3.64278 6.20192 3.66096 6.26283C4.33424 8.51926 5.65564 11.0932 8.17926 13.4572C8.28808 13.5592 8.45642 13.5615 8.56934 13.4641C9.61584 12.5607 11.1687 12.3822 12.0386 13.0633L13.5676 14.3804C14.416 15.0454 14.3838 16.2303 13.4074 17.1288Z" fill="white"/>
</svg>
