<svg width="20" height="18" viewBox="0 0 20 18" fill="none" xmlns="http://www.w3.org/2000/svg">
<path d="M5.89844 12.658V15.5996H7.17824C7.11258 15.7886 7.07031 15.9886 7.07031 16.2C7.07031 17.1926 7.85883 18 8.82812 18C9.79742 18 10.5859 17.1926 10.5859 16.2C10.5859 15.9886 10.5437 15.7886 10.478 15.5996H14.2095C14.1438 15.7886 14.1016 15.9886 14.1016 16.2C14.1016 17.1926 14.8901 18 15.8594 18C16.8287 18 17.6172 17.1926 17.6172 16.2C17.6172 15.9886 17.5749 15.7886 17.5093 15.6H18.8281V14.4H7.07031V13.2H18.7503L20 3.6H5.32395L4.6207 0H0V1.2H3.66055L5.89844 12.658ZM14.1016 6H15.2734V10.8H14.1016V6ZM11.7578 6H12.9297V10.8H11.7578V6ZM9.41406 6H10.5859V10.8H9.41406V6Z" fill="white"/>
</svg>
