<svg width="20" height="20" viewBox="0 0 20 20" fill="none" xmlns="http://www.w3.org/2000/svg">
<path d="M5.63206 5.75368H9.19195V9.5892H5.22834C5.25142 8.22136 5.39343 6.92717 5.63206 5.75368ZM5.63206 14.2463H9.19195V10.4104H5.22834C5.25142 11.7791 5.39343 13.0724 5.63206 14.2463ZM9.19156 4.93167V0C7.75078 0.295827 6.51499 2.20254 5.81866 4.93167H9.19156ZM14.3542 14.2463H18.2791C18.804 13.0724 19.1162 11.7791 19.1675 10.4104H14.7266C14.7043 11.7807 14.5791 13.0708 14.3542 14.2463ZM14.3542 5.75368C14.5779 6.9284 14.7043 8.21972 14.7262 9.5892H19.1686C19.115 8.22136 18.804 6.92717 18.2802 5.75368H14.3542ZM14.1762 4.93167H17.8671C16.5856 2.64444 14.4661 0.94108 11.946 0.273732C12.9142 1.27741 13.6915 2.89935 14.1762 4.93167ZM9.19156 19.9996V15.0683H5.81866C6.51499 17.7966 7.75078 19.7029 9.19156 19.9996ZM13.3496 4.93167C12.6544 2.20336 11.4182 0.296645 9.97708 0V4.93167H13.3496ZM13.9411 10.4104H9.97708V14.2463H13.537C13.7752 13.0724 13.9176 11.7791 13.9411 10.4104ZM0 10.4104C0.0528116 11.7791 0.364595 13.0724 0.88919 14.2463H4.81328C4.58952 13.0708 4.46316 11.7807 4.44204 10.4104H0ZM4.99245 15.0683H1.3019C2.58385 17.3556 4.70297 19.0593 7.22345 19.7267C6.25524 18.7226 5.47754 17.1007 4.99245 15.0683ZM14.1762 15.0683C13.6915 17.1007 12.9146 18.723 11.946 19.7267C14.4657 19.0593 16.5836 17.3547 17.8671 15.0683H14.1762ZM4.99245 4.93167C5.47754 2.89935 6.25406 1.27741 7.22306 0.273732C4.70297 0.940671 2.58464 2.64484 1.3019 4.93167H4.99245ZM13.537 5.75368H9.97708V9.5892H13.9411C13.9176 8.22136 13.7752 6.92717 13.537 5.75368ZM0.88919 5.75368C0.364595 6.92717 0.0524204 8.22136 0 9.5892H4.44204C4.46355 8.21972 4.58952 6.9284 4.81328 5.75368H0.88919ZM9.97708 15.0683V20C11.4182 19.7038 12.6544 17.7975 13.3496 15.0683H9.97708Z" fill="white"/>
</svg>
