<svg width="14" height="18" viewBox="0 0 14 18" fill="none" xmlns="http://www.w3.org/2000/svg">
<path d="M6.95178 0C3.11855 0 0 3.09111 0 6.89062C0 8.10682 0.32418 9.30252 0.937462 10.3484C1.08044 10.5923 1.24025 10.8299 1.41256 11.0547L6.46789 17.7588C6.5824 17.9107 6.76157 18 6.95177 18C7.14196 18 7.32113 17.9107 7.43564 17.7588L12.491 11.0547C12.6633 10.8299 12.8231 10.5923 12.9661 10.3485C13.5794 9.30252 13.9036 8.10682 13.9036 6.89062C13.9036 3.09111 10.785 0 6.95178 0ZM6.95178 9.17578C5.68057 9.17578 4.64635 8.15066 4.64635 6.89062C4.64635 5.63059 5.68057 4.60547 6.95178 4.60547C8.223 4.60547 9.25722 5.63059 9.25722 6.89062C9.25722 8.15066 8.223 9.17578 6.95178 9.17578Z" fill="white"/>
</svg>
