<svg width="79" height="127" viewBox="0 0 79 127" fill="none" xmlns="http://www.w3.org/2000/svg">
<path d="M64.6006 0H14.2781C6.40507 0 0 6.40507 0 14.2781V112.722C0 120.595 6.40507 127 14.2781 127H64.6008C72.4738 127 78.8789 120.595 78.8789 112.722V14.2781C78.8787 6.40507 72.4736 0 64.6006 0ZM71.3641 112.722C71.3638 116.451 68.33 119.485 64.6006 119.485H14.2781C10.5487 119.485 7.51483 116.451 7.51483 112.722V104.776H71.3643L71.3641 112.722ZM71.3641 97.2617H71.3638H7.51483V24.7938H71.3643L71.3641 97.2617ZM71.3641 17.2789H7.51483V14.2781C7.51483 10.5487 10.5487 7.51483 14.2781 7.51483H64.6008C68.3302 7.51483 71.3641 10.5487 71.3641 14.2781V17.2789Z" fill="url(#paint0_linear_491_7341)"/>
<path d="M44.9614 108.693H33.9176C31.8424 108.693 30.1602 110.376 30.1602 112.451C30.1602 114.526 31.8424 116.208 33.9176 116.208H44.9614C47.0365 116.208 48.7188 114.526 48.7188 112.451C48.7188 110.376 47.0365 108.693 44.9614 108.693Z" fill="url(#paint1_linear_491_7341)"/>
<path d="M61.9826 79.232H60.1458V39.068C60.1458 36.9928 58.4636 35.3105 56.3884 35.3105C54.3132 35.3105 52.631 36.9928 52.631 39.068V79.232H43.1958V49.5904C43.1958 47.5152 41.5135 45.8329 39.4384 45.8329C37.3632 45.8329 35.681 47.5152 35.681 49.5904V79.232H26.2457V61.0295C26.2457 58.9544 24.5635 57.2721 22.4883 57.2721C20.4132 57.2721 18.7309 58.9544 18.7309 61.0295V79.232H16.8941C14.819 79.232 13.1367 80.9142 13.1367 82.9894C13.1367 85.0645 14.819 86.7468 16.8941 86.7468H61.9829C64.058 86.7468 65.7403 85.0645 65.7403 82.9894C65.74 80.9145 64.0578 79.232 61.9826 79.232Z" fill="url(#paint2_linear_491_7341)"/>
<defs>
<linearGradient id="paint0_linear_491_7341" x1="39.4395" y1="-9.67729e-08" x2="44.6665" y2="207.777" gradientUnits="userSpaceOnUse">
<stop stop-color="#6AA589"/>
<stop offset="1" stop-color="white"/>
</linearGradient>
<linearGradient id="paint1_linear_491_7341" x1="39.4395" y1="108.693" x2="39.5173" y2="120.995" gradientUnits="userSpaceOnUse">
<stop stop-color="#6AA589"/>
<stop offset="1" stop-color="white"/>
</linearGradient>
<linearGradient id="paint2_linear_491_7341" x1="39.4385" y1="35.3105" x2="40.7247" y2="119.496" gradientUnits="userSpaceOnUse">
<stop stop-color="#6AA589"/>
<stop offset="1" stop-color="white"/>
</linearGradient>
</defs>
</svg>
