<svg width="28" height="28" viewBox="0 0 28 28" fill="none" xmlns="http://www.w3.org/2000/svg">
<path d="M0.757556 18.6819C0.339157 18.6819 0 19.0211 0 19.4394C0 19.8578 0.339157 20.197 0.757556 20.197H3.56753V23.4611C3.56753 23.9976 4.0024 24.4325 4.53888 24.4325H7.80303V27.2424C7.80303 27.6608 8.14219 28 8.56059 28C8.97899 28 9.31814 27.6608 9.31814 27.2424V24.4325H11.4293V27.2424C11.4293 27.6608 11.7685 28 12.1869 28C12.6053 28 12.9444 27.6608 12.9444 27.2424V24.4325H15.0556V27.2424C15.0556 27.6608 15.3947 28 15.8131 28C16.2315 28 16.5707 27.6608 16.5707 27.2424V24.4325H18.6819V27.2424C18.6819 27.6608 19.0211 28 19.4395 28C19.8579 28 20.197 27.6608 20.197 27.2424V24.4325H23.4612C23.9976 24.4325 24.4325 23.9976 24.4325 23.4611V20.197H27.2425C27.6609 20.197 28 19.8578 28 19.4394C28 19.021 27.6609 18.6819 27.2425 18.6819H24.4325V16.5707H27.2425C27.6609 16.5707 28 16.2315 28 15.8131C28 15.3947 27.6609 15.0556 27.2425 15.0556H24.4325V12.9444H27.2425C27.6609 12.9444 28 12.6053 28 12.1869C28 11.7685 27.6609 11.4293 27.2425 11.4293H24.4325V9.31814H27.2425C27.6609 9.31814 28 8.97899 28 8.56059C28 8.14219 27.6609 7.80303 27.2425 7.80303H24.4325V4.53884C24.4325 4.0024 23.9976 3.56748 23.4612 3.56748H20.197V0.757556C20.197 0.339157 19.8579 0 19.4395 0C19.0211 0 18.6819 0.339157 18.6819 0.757556V3.56753H16.5707V0.757556C16.5707 0.339157 16.2315 0 15.8131 0C15.3947 0 15.0556 0.339157 15.0556 0.757556V3.56753H12.9444V0.757556C12.9444 0.339157 12.6053 0 12.1869 0C11.7685 0 11.4293 0.339157 11.4293 0.757556V3.56753H9.31814V0.757556C9.3181 0.339157 8.97894 0 8.56054 0C8.14214 0 7.80299 0.339157 7.80299 0.757556V3.56753H4.53884C4.0024 3.56753 3.56748 4.0024 3.56748 4.53888V7.80303H0.757556C0.339157 7.80299 0 8.14214 0 8.56054C0 8.97894 0.339157 9.3181 0.757556 9.3181H3.56753V11.4293H0.757556C0.339157 11.4293 0 11.7685 0 12.1868C0 12.6052 0.339157 12.9444 0.757556 12.9444H3.56753V15.0555H0.757556C0.339157 15.0556 0 15.3947 0 15.8131C0 16.2315 0.339157 16.5707 0.757556 16.5707H3.56753V18.6819H0.757556ZM16.7641 6.32951C16.7641 5.97187 17.054 5.68194 17.4117 5.68194H21.6705C22.0281 5.68194 22.3181 5.97187 22.3181 6.32951V10.5883C22.3181 10.946 22.0281 11.2359 21.6705 11.2359H21.5086C21.151 11.2359 20.8611 10.946 20.8611 10.5883V7.13895H17.4117C17.054 7.13895 16.7641 6.84902 16.7641 6.49138V6.32951ZM16.7641 21.5086C16.7641 21.151 17.054 20.8611 17.4117 20.8611H20.8611V17.4117C20.8611 17.054 21.151 16.7641 21.5086 16.7641H21.6705C22.0281 16.7641 22.3181 17.054 22.3181 17.4117V21.6705C22.3181 22.0281 22.0281 22.3181 21.6705 22.3181H17.4117C17.054 22.3181 16.7641 22.0281 16.7641 21.6705V21.5086ZM5.68194 6.32951C5.68194 5.97187 5.97182 5.68194 6.32951 5.68194H10.5883C10.946 5.68194 11.2359 5.97187 11.2359 6.32951V6.49138C11.2359 6.84902 10.946 7.13895 10.5883 7.13895H7.13895V10.5883C7.13895 10.946 6.84907 11.2359 6.49138 11.2359H6.32946C5.97182 11.2359 5.6819 10.946 5.6819 10.5883L5.68194 6.32951ZM5.68194 17.4116C5.68194 17.054 5.97182 16.764 6.32951 16.764H6.49143C6.84907 16.764 7.13899 17.054 7.13899 17.4116V20.861H10.5884C10.946 20.861 11.236 21.1509 11.236 21.5086V21.6704C11.236 22.0281 10.9461 22.318 10.5884 22.318H6.32956C5.97191 22.318 5.68199 22.0281 5.68199 21.6704L5.68194 17.4116Z" fill="url(#paint0_linear_491_7405)"/>
<defs>
<linearGradient id="paint0_linear_491_7405" x1="14" y1="-2.13358e-08" x2="14.7161" y2="45.8269" gradientUnits="userSpaceOnUse">
<stop stop-color="#6AA589"/>
<stop offset="1" stop-color="white"/>
</linearGradient>
</defs>
</svg>
