<svg width="30" height="30" viewBox="0 0 30 30" fill="none" xmlns="http://www.w3.org/2000/svg">
<path d="M14.1211 15.8789H15.8789V17.6367H14.1211V15.8789Z" fill="url(#paint0_linear_491_7412)"/>
<path d="M27.3633 22.9688C26.2189 22.9688 25.2525 23.7057 24.8884 24.7266H20.2734C19.7884 24.7266 19.3945 24.3327 19.3945 23.8477V22.9688H22.9102V21.2109H21.1523V19.3945H22.9102V17.6367H21.1523V15.8789H22.9102V14.1211H21.1523V12.3633H22.9102V10.6055H21.1523V8.84766H19.3945V10.6055H17.6367V8.84766H15.8789V10.6055H14.1211V8.84766H12.3633V10.6055H10.6055V8.84766H8.84766V10.6055H7.08984V12.3633H8.84766V14.1211H7.08984V15.8789H8.84766V17.6367H7.08984V19.3945H8.84766V21.2109H7.08984V22.9688H10.6055V23.8477C10.6055 24.3327 10.2116 24.7266 9.72656 24.7266H5.11162C4.74747 23.7057 3.78113 22.9688 2.63672 22.9688C1.18286 22.9688 0 24.1516 0 25.6055C0 27.0593 1.18286 28.2422 2.63672 28.2422C3.78113 28.2422 4.74747 27.5052 5.11162 26.4844H9.72656C11.1804 26.4844 12.3633 25.3015 12.3633 23.8477V22.9688H14.1211V24.8884C13.1003 25.2525 12.3633 26.2189 12.3633 27.3633C12.3633 28.8171 13.5461 30 15 30C16.4539 30 17.6367 28.8171 17.6367 27.3633C17.6367 26.2189 16.8997 25.2525 15.8789 24.8884V22.9688H17.6367V23.8477C17.6367 25.3015 18.8196 26.4844 20.2734 26.4844H24.8884C25.2525 27.5052 26.2189 28.2422 27.3633 28.2422C28.8171 28.2422 30 27.0593 30 25.6055C30 24.1516 28.8171 22.9688 27.3633 22.9688ZM17.6367 19.3945H12.3633V14.1211H17.6367V19.3945Z" fill="url(#paint1_linear_491_7412)"/>
<path d="M5.33203 19.3057V8.84766H7.08984V7.08984H22.9102V8.84766H24.668V19.3057C27.6416 18.8747 30 16.3332 30 13.2422C30 9.49745 26.5835 7.08984 24.302 7.08984C23.1367 2.97569 19.3369 0 15 0C10.6631 0 6.86325 2.97569 5.69801 7.08984C3.54126 7.08984 0 9.3782 0 13.2422C0 16.3332 2.3584 18.8747 5.33203 19.3057Z" fill="url(#paint2_linear_491_7412)"/>
<defs>
<linearGradient id="paint0_linear_491_7412" x1="15" y1="15.8789" x2="15.045" y2="18.7559" gradientUnits="userSpaceOnUse">
<stop stop-color="#6AA589"/>
<stop offset="1" stop-color="white"/>
</linearGradient>
<linearGradient id="paint1_linear_491_7412" x1="15" y1="8.84766" x2="15.3814" y2="43.4714" gradientUnits="userSpaceOnUse">
<stop stop-color="#6AA589"/>
<stop offset="1" stop-color="white"/>
</linearGradient>
<linearGradient id="paint2_linear_491_7412" x1="15" y1="-1.47108e-08" x2="15.3178" y2="31.6017" gradientUnits="userSpaceOnUse">
<stop stop-color="#6AA589"/>
<stop offset="1" stop-color="white"/>
</linearGradient>
</defs>
</svg>
