<svg width="103" height="104" viewBox="0 0 103 104" fill="none" xmlns="http://www.w3.org/2000/svg">
<path d="M56.9766 65.9285L67.311 96.9813L73.4136 90.8779L85.5589 103.023L94.0706 94.5108L81.926 82.3662L88.0286 76.2637L56.9766 65.9285Z" fill="url(#paint0_linear_491_7509)"/>
<path d="M103 18.8131V0H0V18.8131H103ZM89.4209 6.1623H95.5565V12.2979H89.4209V6.1623ZM80.0667 6.1623H86.2022V12.2979H80.0667V6.1623ZM70.7116 6.1623H76.8472V12.2979H70.7116V6.1623Z" fill="url(#paint1_linear_491_7509)"/>
<path d="M0 24.8486V84.9554H56.9478L47.4426 56.3958L99.2036 73.6235L90.46 82.3671L93.0484 84.9554H103V24.8486H0ZM28.9919 63.9949L28.8064 57.9623L39.368 57.6377L39.5535 63.6703L28.9919 63.9949ZM41.6419 54.1368L34.1709 46.6651L38.4381 42.3978L45.9099 49.8696L41.6419 54.1368ZM55.4426 47.7812L49.4108 47.5957L49.7354 37.0341L55.7672 37.2196L55.4426 47.7812Z" fill="url(#paint2_linear_491_7509)"/>
<defs>
<linearGradient id="paint0_linear_491_7509" x1="75.5236" y1="65.9285" x2="76.1107" y2="122.566" gradientUnits="userSpaceOnUse">
<stop stop-color="#DF0D1A"/>
<stop offset="1" stop-color="white"/>
</linearGradient>
<linearGradient id="paint1_linear_491_7509" x1="51.5" y1="0" x2="51.5544" y2="28.7274" gradientUnits="userSpaceOnUse">
<stop stop-color="#DF0D1A"/>
<stop offset="1" stop-color="white"/>
</linearGradient>
<linearGradient id="paint2_linear_491_7509" x1="51.5" y1="24.8486" x2="52.0552" y2="116.628" gradientUnits="userSpaceOnUse">
<stop stop-color="#DF0D1A"/>
<stop offset="1" stop-color="white"/>
</linearGradient>
</defs>
</svg>
