<svg width="73" height="103" viewBox="0 0 73 103" fill="none" xmlns="http://www.w3.org/2000/svg">
<path d="M61.5254 10.5472C47.4625 -3.51574 24.5827 -3.51574 10.5472 10.5472C-3.51574 24.6102 -3.51574 47.4899 10.5472 61.5254L17.7984 54.2742C7.74561 44.1665 7.74561 27.9062 17.7984 17.7984C27.9062 7.74561 44.1665 7.74561 54.2742 17.7984C64.327 27.9062 64.327 44.1665 54.2742 54.2742L61.5254 61.5254C75.5884 47.4625 75.5884 24.6102 61.5254 10.5472Z" fill="url(#paint0_linear_491_7499)"/>
<path d="M41.1719 92.6991V50.6201H41.1993C47.2145 48.5052 51.4993 42.7921 51.4993 36.0353C51.4993 27.4931 44.6052 20.5715 36.0356 20.5715C27.466 20.5715 20.5718 27.4657 20.5718 36.0353C20.5718 42.7921 24.8566 48.5052 30.8718 50.6201V92.6991H15.4355V102.999H56.6356V92.6991H41.1719Z" fill="url(#paint1_linear_491_7499)"/>
<defs>
<linearGradient id="paint0_linear_491_7499" x1="36.0363" y1="-4.68818e-08" x2="37.3796" y2="100.704" gradientUnits="userSpaceOnUse">
<stop stop-color="#6AA589"/>
<stop offset="1" stop-color="white"/>
</linearGradient>
<linearGradient id="paint1_linear_491_7499" x1="36.0356" y1="20.5715" x2="40.2497" y2="155.38" gradientUnits="userSpaceOnUse">
<stop stop-color="#6AA589"/>
<stop offset="1" stop-color="white"/>
</linearGradient>
</defs>
</svg>
