<svg width="88" height="106" viewBox="0 0 88 106" fill="none" xmlns="http://www.w3.org/2000/svg">
<path d="M59.6133 2.49512V8.51689V14.5389V28.3877H73.4623H79.4843H85.5066L59.6133 2.49512Z" fill="url(#paint0_linear_491_7486)"/>
<path d="M83.7407 36.9037H79.4825H55.3532C53.0016 36.9037 51.095 34.9971 51.095 32.6456V8.51684V4.25889V0.000732422H18.4496C16.098 0.000732422 14.1914 1.90733 14.1914 4.25889V86.5822C14.1914 88.9337 16.098 90.8404 18.4496 90.8404H83.7405C86.092 90.8404 87.9986 88.934 87.9986 86.5822V36.9037H83.7407ZM66.7082 73.8079H35.4822C33.1306 73.8079 31.224 71.9013 31.224 69.5498C31.224 67.1982 33.1306 65.2916 35.4822 65.2916H66.7082C69.0598 65.2916 70.9664 67.1982 70.9664 69.5498C70.9664 71.9013 69.0598 73.8079 66.7082 73.8079ZM66.7082 56.7755H35.4822C33.1306 56.7755 31.224 54.8689 31.224 52.5174C31.224 50.1658 33.1306 48.2592 35.4822 48.2592H66.7082C69.0598 48.2592 70.9664 50.1658 70.9664 52.5174C70.9664 54.8689 69.0598 56.7755 66.7082 56.7755Z" fill="url(#paint1_linear_491_7486)"/>
<path d="M69.5493 96.5159H8.51631V18.4505C8.51631 16.099 6.60971 14.1924 4.25816 14.1924C1.9066 14.1924 0 16.0988 0 18.4505V100.774C0 103.125 1.9066 105.032 4.25816 105.032H69.5491C71.9006 105.032 73.8072 103.126 73.8072 100.774C73.8072 98.4223 71.9008 96.5159 69.5493 96.5159Z" fill="url(#paint2_linear_491_7486)"/>
<defs>
<linearGradient id="paint0_linear_491_7486" x1="72.56" y1="2.49512" x2="72.9698" y2="42.0287" gradientUnits="userSpaceOnUse">
<stop stop-color="#DF0D1A"/>
<stop offset="1" stop-color="white"/>
</linearGradient>
<linearGradient id="paint1_linear_491_7486" x1="51.095" y1="0.000732422" x2="52.8644" y2="138.69" gradientUnits="userSpaceOnUse">
<stop stop-color="#DF0D1A"/>
<stop offset="1" stop-color="white"/>
</linearGradient>
<linearGradient id="paint2_linear_491_7486" x1="36.9036" y1="14.1924" x2="38.673" y2="152.882" gradientUnits="userSpaceOnUse">
<stop stop-color="#DF0D1A"/>
<stop offset="1" stop-color="white"/>
</linearGradient>
</defs>
</svg>
