<svg width="77" height="77" viewBox="0 0 77 77" fill="none" xmlns="http://www.w3.org/2000/svg">
<path d="M13.5054 43.1621C9.78183 43.1621 6.75272 46.1979 6.75272 49.9297C6.75272 53.6615 9.78183 56.6973 13.5054 56.6973C17.229 56.6973 20.2581 53.6615 20.2581 49.9297C20.2581 46.1979 17.229 43.1621 13.5054 43.1621Z" fill="url(#paint0_linear_379_335)"/>
<path d="M18.0072 56.6973H13.5054H9.0036C4.03797 56.6973 0 60.7441 0 65.7207V74.7441C0 75.991 1.00675 77 2.2509 77H24.7599C26.0041 77 27.0108 75.991 27.0108 74.7441V65.7207C27.0108 60.7441 22.9728 56.6973 18.0072 56.6973Z" fill="url(#paint1_linear_379_335)"/>
<path d="M63.3254 43.1621C59.6018 43.1621 56.5727 46.1979 56.5727 49.9297C56.5727 53.6615 59.6018 56.6973 63.3254 56.6973C67.049 56.6973 70.0781 53.6615 70.0781 49.9297C70.0781 46.1979 67.049 43.1621 63.3254 43.1621Z" fill="url(#paint2_linear_379_335)"/>
<path d="M67.8272 56.6973H63.3254H58.8236C53.8579 56.6973 49.8199 60.7441 49.8199 65.7207V74.7441C49.8199 75.991 50.8267 77 52.0708 77H74.5799C75.824 77 76.8308 75.991 76.8308 74.7441V65.7207C76.8308 60.7441 72.7928 56.6973 67.8272 56.6973Z" fill="url(#paint3_linear_379_335)"/>
<path d="M38.4154 0H20.4082C14.1925 0 9.15366 5.04997 9.15366 11.2793V24.8145C9.15366 30.2625 13.0269 34.8183 18.1573 35.8668V42.861C18.1573 44.8707 20.5818 45.8773 21.9999 44.4561L30.3438 36.0938H38.4154C44.631 36.0938 49.6699 31.0438 49.6699 24.8145V11.2793C49.6699 5.04997 44.631 0 38.4154 0ZM37.7559 12.8742L28.7523 21.8976C27.8734 22.7785 26.4482 22.7785 25.5693 21.8976L21.0675 17.3859C20.1883 16.5048 20.1883 15.0771 21.0675 14.196C21.9467 13.3148 23.3713 13.3148 24.2505 14.196L27.1609 17.1128L34.5731 9.68425C35.4523 8.80311 36.8768 8.80311 37.756 9.68425C38.6352 10.5654 38.6352 11.9931 37.7559 12.8742Z" fill="url(#paint4_linear_379_335)"/>
<path d="M56.4237 4.51172H52.5924C53.576 6.57102 54.1728 8.84823 54.1728 11.2793V24.8145C54.1728 29.981 51.6482 34.5343 47.8086 37.4172L54.832 44.4561C56.2501 45.8773 58.6746 44.8707 58.6746 42.861V35.8668C63.805 34.8181 67.6782 30.2624 67.6782 24.8145V15.791C67.6782 9.56169 62.6394 4.51172 56.4237 4.51172Z" fill="url(#paint5_linear_379_335)"/>
<defs>
<linearGradient id="paint0_linear_379_335" x1="13.5054" y1="43.1621" x2="13.7201" y2="63.828" gradientUnits="userSpaceOnUse">
<stop stop-color="#DF0D1A"/>
<stop offset="1" stop-color="white"/>
</linearGradient>
<linearGradient id="paint1_linear_379_335" x1="13.5054" y1="56.6973" x2="13.7469" y2="87.6976" gradientUnits="userSpaceOnUse">
<stop stop-color="#DF0D1A"/>
<stop offset="1" stop-color="white"/>
</linearGradient>
<linearGradient id="paint2_linear_379_335" x1="63.3254" y1="43.1621" x2="63.5401" y2="63.828" gradientUnits="userSpaceOnUse">
<stop stop-color="#DF0D1A"/>
<stop offset="1" stop-color="white"/>
</linearGradient>
<linearGradient id="paint3_linear_379_335" x1="63.3254" y1="56.6973" x2="63.5669" y2="87.6976" gradientUnits="userSpaceOnUse">
<stop stop-color="#DF0D1A"/>
<stop offset="1" stop-color="white"/>
</linearGradient>
<linearGradient id="paint4_linear_379_335" x1="29.4118" y1="0" x2="30.2071" y2="68.891" gradientUnits="userSpaceOnUse">
<stop stop-color="#DF0D1A"/>
<stop offset="1" stop-color="white"/>
</linearGradient>
<linearGradient id="paint5_linear_379_335" x1="57.7434" y1="4.51172" x2="59.0566" y2="66.4947" gradientUnits="userSpaceOnUse">
<stop stop-color="#DF0D1A"/>
<stop offset="1" stop-color="white"/>
</linearGradient>
</defs>
</svg>
