<svg width="114" height="77" viewBox="0 0 114 77" fill="none" xmlns="http://www.w3.org/2000/svg">
<path d="M46.5031 56.7363H62.6775V58.7626H46.5031V56.7363Z" fill="url(#paint0_linear_379_354)"/>
<path d="M26.2841 4.05273V68.8932H42.4586V4.05273H26.2841ZM38.415 24.3154H30.3277V20.2628H38.415V24.3154ZM38.415 16.2103H30.3277V12.1578H38.415V16.2103Z" fill="url(#paint1_linear_379_354)"/>
<path d="M46.5031 16.2109H62.6775V52.6837H46.5031V16.2109Z" fill="url(#paint2_linear_379_354)"/>
<path d="M0.000183105 72.9475H113.222V77H0.000183105V72.9475Z" fill="url(#paint3_linear_379_354)"/>
<path d="M46.5031 62.8164H62.6775V68.8952H46.5031V62.8164Z" fill="url(#paint4_linear_379_354)"/>
<path d="M6.06476 56.7363H22.2392V60.7889H6.06476V56.7363Z" fill="url(#paint5_linear_379_354)"/>
<path d="M22.2392 12.1582H6.06476V52.6835H22.2392V12.1582ZM14.152 28.3683C10.8024 28.3683 8.08657 25.6465 8.08657 22.2895C8.08657 18.9325 10.8024 16.2107 14.152 16.2107C17.5016 16.2107 20.2174 18.9325 20.2174 22.2895C20.2174 25.6465 17.5016 28.3683 14.152 28.3683Z" fill="url(#paint6_linear_379_354)"/>
<path d="M16.1751 22.288C16.1751 23.407 15.2698 24.3142 14.1533 24.3142C13.0367 24.3142 12.1315 23.407 12.1315 22.288C12.1315 21.169 13.0367 20.2617 14.1533 20.2617C15.2698 20.2617 16.1751 21.169 16.1751 22.288Z" fill="url(#paint7_linear_379_354)"/>
<path d="M6.06476 64.8418H22.2392V68.8943H6.06476V64.8418Z" fill="url(#paint8_linear_379_354)"/>
<path d="M107.156 20.2617H90.9813V52.6819H107.156V20.2617ZM99.0685 36.4718C95.7189 36.4718 93.0031 33.75 93.0031 30.393C93.0031 27.036 95.7189 24.3142 99.0685 24.3142C102.418 24.3142 105.134 27.036 105.134 30.393C105.134 33.75 102.418 36.4718 99.0685 36.4718Z" fill="url(#paint9_linear_379_354)"/>
<path d="M90.9813 56.7363H107.156V58.7626H90.9813V56.7363Z" fill="url(#paint10_linear_379_354)"/>
<path d="M101.092 30.3935C101.092 31.5124 100.186 32.4197 99.0698 32.4197C97.9532 32.4197 97.048 31.5124 97.048 30.3935C97.048 29.2745 97.9532 28.3672 99.0698 28.3672C100.186 28.3672 101.092 29.2745 101.092 30.3935Z" fill="url(#paint11_linear_379_354)"/>
<path d="M66.7202 14.1816H86.9383V68.8907H66.7202V14.1816Z" fill="url(#paint12_linear_379_354)"/>
<path d="M66.7203 0H86.9384V4.05253H66.7203V0Z" fill="url(#paint13_linear_379_354)"/>
<path d="M66.7203 8.10547H86.9384V10.1317H66.7203V8.10547Z" fill="url(#paint14_linear_379_354)"/>
<path d="M90.9813 62.8164H107.156V68.8952H90.9813V62.8164Z" fill="url(#paint15_linear_379_354)"/>
<defs>
<linearGradient id="paint0_linear_379_354" x1="54.5903" y1="56.7363" x2="54.5968" y2="60.0535" gradientUnits="userSpaceOnUse">
<stop stop-color="#6AA589"/>
<stop offset="1" stop-color="white"/>
</linearGradient>
<linearGradient id="paint1_linear_379_354" x1="34.3714" y1="4.05273" x2="40.9943" y2="109.786" gradientUnits="userSpaceOnUse">
<stop stop-color="#6AA589"/>
<stop offset="1" stop-color="white"/>
</linearGradient>
<linearGradient id="paint2_linear_379_354" x1="54.5903" y1="16.2109" x2="56.6914" y2="75.8455" gradientUnits="userSpaceOnUse">
<stop stop-color="#6AA589"/>
<stop offset="1" stop-color="white"/>
</linearGradient>
<linearGradient id="paint3_linear_379_354" x1="56.6109" y1="72.9475" x2="56.6146" y2="79.5818" gradientUnits="userSpaceOnUse">
<stop stop-color="#6AA589"/>
<stop offset="1" stop-color="white"/>
</linearGradient>
<linearGradient id="paint4_linear_379_354" x1="54.5903" y1="62.8164" x2="54.6487" y2="72.7675" gradientUnits="userSpaceOnUse">
<stop stop-color="#6AA589"/>
<stop offset="1" stop-color="white"/>
</linearGradient>
<linearGradient id="paint5_linear_379_354" x1="14.152" y1="56.7363" x2="14.178" y2="63.3705" gradientUnits="userSpaceOnUse">
<stop stop-color="#6AA589"/>
<stop offset="1" stop-color="white"/>
</linearGradient>
<linearGradient id="paint6_linear_379_354" x1="14.152" y1="12.1582" x2="16.7452" y2="78.3995" gradientUnits="userSpaceOnUse">
<stop stop-color="#6AA589"/>
<stop offset="1" stop-color="white"/>
</linearGradient>
<linearGradient id="paint7_linear_379_354" x1="14.1533" y1="20.2617" x2="14.2571" y2="26.8944" gradientUnits="userSpaceOnUse">
<stop stop-color="#6AA589"/>
<stop offset="1" stop-color="white"/>
</linearGradient>
<linearGradient id="paint8_linear_379_354" x1="14.152" y1="64.8418" x2="14.178" y2="71.476" gradientUnits="userSpaceOnUse">
<stop stop-color="#6AA589"/>
<stop offset="1" stop-color="white"/>
</linearGradient>
<linearGradient id="paint9_linear_379_354" x1="99.0685" y1="20.2617" x2="100.729" y2="73.284" gradientUnits="userSpaceOnUse">
<stop stop-color="#6AA589"/>
<stop offset="1" stop-color="white"/>
</linearGradient>
<linearGradient id="paint10_linear_379_354" x1="99.0685" y1="56.7363" x2="99.075" y2="60.0535" gradientUnits="userSpaceOnUse">
<stop stop-color="#6AA589"/>
<stop offset="1" stop-color="white"/>
</linearGradient>
<linearGradient id="paint11_linear_379_354" x1="99.0698" y1="28.3672" x2="99.1736" y2="34.9998" gradientUnits="userSpaceOnUse">
<stop stop-color="#6AA589"/>
<stop offset="1" stop-color="white"/>
</linearGradient>
<linearGradient id="paint12_linear_379_354" x1="76.8293" y1="14.1816" x2="80.6093" y2="103.585" gradientUnits="userSpaceOnUse">
<stop stop-color="#6AA589"/>
<stop offset="1" stop-color="white"/>
</linearGradient>
<linearGradient id="paint13_linear_379_354" x1="76.8293" y1="-3.08799e-09" x2="76.8501" y2="6.63422" gradientUnits="userSpaceOnUse">
<stop stop-color="#6AA589"/>
<stop offset="1" stop-color="white"/>
</linearGradient>
<linearGradient id="paint14_linear_379_354" x1="76.8293" y1="8.10547" x2="76.8345" y2="11.4226" gradientUnits="userSpaceOnUse">
<stop stop-color="#6AA589"/>
<stop offset="1" stop-color="white"/>
</linearGradient>
<linearGradient id="paint15_linear_379_354" x1="99.0685" y1="62.8164" x2="99.1269" y2="72.7675" gradientUnits="userSpaceOnUse">
<stop stop-color="#6AA589"/>
<stop offset="1" stop-color="white"/>
</linearGradient>
</defs>
</svg>
