<svg width="92" height="95" viewBox="0 0 92 95" fill="none" xmlns="http://www.w3.org/2000/svg">
<path d="M26.9627 51.1309L23.827 51.0242C23.3518 49.4506 22.5199 48.0084 21.3965 46.8103L22.869 44.0366L22.6295 43.8233C21.2922 42.6386 19.7312 41.7347 18.0391 41.1653L17.7375 41.0586L16.0699 43.73C14.474 43.3566 12.8137 43.3566 11.2178 43.73L9.55453 41.0586L9.25293 41.1653C7.55903 41.7336 5.99647 42.6376 4.65817 43.8233L4.41857 44.0366L5.89099 46.8103C4.76741 48.0075 3.93688 49.4501 3.46499 51.0242L0.324907 51.1309L0.262722 51.4464C-0.087574 53.2011 -0.087574 55.008 0.262722 56.7627L0.324907 57.0782L3.46499 57.1894C3.93798 58.7617 4.76841 60.2025 5.89099 61.3988L4.41855 64.1769L4.65815 64.3902C5.99645 65.576 7.559 66.48 9.2529 67.0484L9.5545 67.1505L11.2178 64.4836C12.8137 64.857 14.474 64.857 16.0698 64.4836L17.7375 67.1505L18.0391 67.0484C19.7312 66.4789 21.2921 65.575 22.6295 64.3902L22.869 64.1769L21.3965 61.3988C22.5198 60.2024 23.3517 58.7617 23.827 57.1894L26.9627 57.0782L27.0247 56.7627C27.375 55.008 27.375 53.2011 27.0247 51.4464L26.9627 51.1309ZM18.1134 58.5823C17.2293 59.4683 16.1031 60.0716 14.8769 60.316C13.6508 60.5604 12.3798 60.435 11.2248 59.9555C10.0698 59.476 9.08263 58.6641 8.38808 57.6223C7.69353 56.5805 7.32281 55.3558 7.32281 54.1028C7.32281 52.8499 7.69353 51.6251 8.38808 50.5834C9.08263 49.5416 10.0698 48.7296 11.2248 48.2502C12.3798 47.7707 13.6508 47.6452 14.8769 47.8897C16.1031 48.1341 17.2293 48.7374 18.1134 49.6234C18.701 50.2113 19.1672 50.9095 19.4852 51.6781C19.8033 52.4468 19.967 53.2707 19.967 54.1028C19.967 54.935 19.8033 55.7589 19.4852 56.5275C19.1672 57.2962 18.701 57.9944 18.1134 58.5823Z" fill="url(#paint0_linear_379_371)"/>
<path d="M91.3948 51.4464L91.3326 51.1309L88.1969 51.0242C87.7217 49.4506 86.8899 48.0084 85.7665 46.8103L87.2389 44.0366L86.9995 43.8233C85.6621 42.6386 84.1012 41.7347 82.4091 41.1653L82.1075 41.0586L80.4398 43.73C78.8439 43.3566 77.1836 43.3566 75.5877 43.73L73.9245 41.0586L73.6229 41.1653C71.929 41.7336 70.3664 42.6375 69.0281 43.8233L68.7885 44.0366L70.261 46.8103C69.1373 48.0075 68.3068 49.4501 67.835 51.0242L64.6948 51.1309L64.6327 51.4464C64.2824 53.2011 64.2824 55.008 64.6327 56.7627L64.6948 57.0782L67.835 57.1894C68.3079 58.7617 69.1383 60.2026 70.261 61.3988L68.7885 64.1769L69.0281 64.3902C70.3664 65.576 71.929 66.48 73.6229 67.0484L73.9245 67.1505L75.5877 64.4836C77.1837 64.857 78.8439 64.857 80.4398 64.4836L82.1075 67.1505L82.4091 67.0484C84.1012 66.4789 85.6621 65.575 86.9995 64.3902L87.2389 64.1769L85.7665 61.3988C86.8898 60.2024 87.7217 58.7617 88.197 57.1894L91.3326 57.0782L91.3948 56.7627C91.7451 55.008 91.7451 53.2011 91.3948 51.4464ZM82.4833 58.5823C81.5993 59.4682 80.473 60.0716 79.2468 60.316C78.0207 60.5604 76.7498 60.435 75.5948 59.9555C74.4398 59.476 73.4526 58.664 72.7581 57.6223C72.0635 56.5805 71.6928 55.3557 71.6928 54.1028C71.6928 52.8499 72.0635 51.6252 72.7581 50.5834C73.4526 49.5416 74.4398 48.7297 75.5948 48.2502C76.7498 47.7707 78.0207 47.6453 79.2468 47.8897C80.473 48.1341 81.5993 48.7374 82.4833 49.6234C83.0709 50.2112 83.5371 50.9095 83.8552 51.6781C84.1733 52.4468 84.337 53.2707 84.337 54.1028C84.337 54.935 84.1733 55.7589 83.8552 56.5276C83.5371 57.2962 83.0709 57.9944 82.4833 58.5823Z" fill="url(#paint1_linear_379_371)"/>
<path d="M59.8277 46.513L59.5535 39.4872C59.5224 38.6683 59.2661 37.8739 58.8129 37.1918C58.3597 36.5096 57.7272 35.9663 56.9853 35.6217L52.4153 33.5059L48.0648 45.084L47.3701 40.6781L47.1873 39.5513L46.8766 37.582L47.6626 35.8965H43.9975L44.7835 37.582L44.4727 39.5513L44.2899 40.6781L43.5953 45.084L39.2447 33.5059L34.6749 35.6217C33.933 35.9663 33.3004 36.5096 32.8472 37.1917C32.394 37.8739 32.1377 38.6683 32.1066 39.4872L31.8324 46.513L31.485 55.2514L31.3938 57.5782L32.1706 58.5767L32.9109 59.5109L34.6383 91.0577C34.6099 91.5558 34.6832 92.0546 34.8539 92.5234C35.0245 92.9921 35.2888 93.4211 35.6307 93.7838C35.9725 94.1466 36.3847 94.4356 36.8419 94.6332C37.2992 94.8307 37.7918 94.9326 38.2897 94.9326C38.7876 94.9326 39.2803 94.8307 39.7375 94.6332C40.1947 94.4356 40.6069 94.1466 40.9487 93.7838C41.2906 93.4211 41.5549 92.9921 41.7256 92.5234C41.8962 92.0546 41.9695 91.5558 41.9411 91.0577L44.7196 71.6935L45.5055 66.2526H46.1546L46.9405 71.6935L49.7191 91.0577C49.6907 91.5558 49.764 92.0546 49.9347 92.5233C50.1053 92.9921 50.3697 93.421 50.7115 93.7837C51.0534 94.1465 51.4655 94.4355 51.9227 94.633C52.3799 94.8305 52.8726 94.9324 53.3705 94.9324C53.8683 94.9324 54.361 94.8305 54.8182 94.633C55.2754 94.4355 55.6875 94.1465 56.0294 93.7837C56.3712 93.421 56.6356 92.9921 56.8062 92.5233C56.9769 92.0546 57.0502 91.5558 57.0218 91.0577L58.7493 59.5109L59.4895 58.5767L60.2663 57.5782L60.1751 55.2514L59.8277 46.513Z" fill="url(#paint2_linear_379_371)"/>
<path d="M61.9104 12.1622L58.1241 12.0333C57.5503 10.1332 56.5458 8.39182 55.1893 6.94514L56.9673 3.59595L56.6782 3.33832C55.0633 1.90777 53.1785 0.8164 51.1353 0.128812L50.7711 0L48.7575 3.22568C46.8304 2.77484 44.8257 2.77484 42.8986 3.22568L40.8903 0L40.5262 0.128812C38.4808 0.815092 36.5939 1.90656 34.9779 3.33832L34.6887 3.59595L36.4666 6.94514C35.1099 8.39071 34.107 10.1326 33.5373 12.0333L29.7456 12.1622L29.6707 12.5432C29.2476 14.6619 29.2476 16.8436 29.6707 18.9624L29.7456 19.3435L33.5373 19.4776C34.1083 21.3761 35.1111 23.116 36.4666 24.5604L34.6887 27.9149L34.9779 28.1725C36.5939 29.6044 38.4808 30.6959 40.5262 31.3821L40.8903 31.5056L42.8986 28.2852C44.8257 28.7362 46.8305 28.7362 48.7575 28.2852L50.7712 31.5056L51.1353 31.3821C53.1785 30.6946 55.0634 29.6031 56.6782 28.1725L56.9673 27.9149L55.1893 24.5604C56.5457 23.1157 57.5502 21.3761 58.1242 19.4776L61.9104 19.3435L61.9854 18.9624C62.4084 16.8436 62.4084 14.6619 61.9854 12.5432L61.9104 12.1622ZM51.225 21.1595C50.1576 22.2293 48.7976 22.9578 47.3171 23.253C45.8365 23.5481 44.3019 23.3966 42.9072 22.8177C41.5126 22.2387 40.3205 21.2583 39.4819 20.0004C38.6432 18.7425 38.1956 17.2635 38.1956 15.7507C38.1956 14.2378 38.6432 12.7589 39.4819 11.5009C40.3205 10.243 41.5126 9.2626 42.9072 8.68364C44.3019 8.10468 45.8365 7.9532 47.3171 8.24835C48.7976 8.5435 50.1576 9.27203 51.225 10.3418C51.9345 11.0517 52.4974 11.8948 52.8815 12.8229C53.2656 13.751 53.4632 14.7459 53.4632 15.7507C53.4632 16.7554 53.2656 17.7503 52.8815 18.6785C52.4974 19.6066 51.9345 20.4497 51.225 21.1595Z" fill="url(#paint3_linear_379_371)"/>
<defs>
<linearGradient id="paint0_linear_379_371" x1="13.6437" y1="41.0586" x2="14.0386" y2="80.8969" gradientUnits="userSpaceOnUse">
<stop stop-color="#DF0D1A"/>
<stop offset="1" stop-color="white"/>
</linearGradient>
<linearGradient id="paint1_linear_379_371" x1="78.0138" y1="41.0586" x2="78.4086" y2="80.8969" gradientUnits="userSpaceOnUse">
<stop stop-color="#DF0D1A"/>
<stop offset="1" stop-color="white"/>
</linearGradient>
<linearGradient id="paint2_linear_379_371" x1="45.8301" y1="33.5059" x2="47.8976" y2="127.259" gradientUnits="userSpaceOnUse">
<stop stop-color="#DF0D1A"/>
<stop offset="1" stop-color="white"/>
</linearGradient>
<linearGradient id="paint3_linear_379_371" x1="45.828" y1="0" x2="46.3048" y2="48.1042" gradientUnits="userSpaceOnUse">
<stop stop-color="#DF0D1A"/>
<stop offset="1" stop-color="white"/>
</linearGradient>
</defs>
</svg>
