<svg xmlns="http://www.w3.org/2000/svg"> 
	<defs> 
		<clipPath id="waveClip" clipPathUnits="objectBoundingBox"> 
			<path d="M0 0.07317 
				C0 0.0328 0.00959 0 0.02143 0 
				H0.26383 
				C0.26502 0 0.26625 0.000342 0.26668 0.00102 
				L0.32461 0.03403 
				C0.3258 0.03462 0.3273 0.03499 0.32841 0.03499 
				H0.97857 
				C0.99041 0.03499 1 0.0678 1 0.10821 
				V0.85806 
				C1 0.90017 0.99041 0.93244 0.97857 0.93244 
				H0.89061 
				C0.88739 0.93244 0.88419 0.93306 0.88256 0.93485 
				L0.83409 0.99678 
				C0.83245 0.9985 0.83069 1 0.82842 1 
				H0.02143 
				C0.00959 1 0 0.96873 0 0.92683 
				V0.07317 
				Z" />
		</clipPath>
	</defs> 
</svg>
