<svg xmlns="http://www.w3.org/2000/svg"> 
	<defs> 
		<clipPath id="waveClip" clipPathUnits="objectBoundingBox"> 
			<path d="M0 0.03417 
				C0 0.01530 0.00898 0 0.02005 0 
				H0.26236 
				C0.26450 0 0.26662 0.00061 0.26877 0.00180 
				L0.32318 0.03323 
				C0.32532 0.03444 0.32755 0.03504 0.32969 0.03504 
				H0.97995 
				C0.99168 0.03504 1 0.05033 1 0.06922 
				V0.89799 
				C1 0.91688 0.99168 0.93186 0.97995 0.93186 
				H0.89259 
				C0.88873 0.93186 0.88490 0.93414 0.88165 0.93781 
				L0.83687 0.99344 
				C0.83362 0.99710 0.82979 1 0.82594 1 
				H0.02005 
				C0.00898 1 0 0.98406 0 0.96583 
				V0.03417 
				Z" />
		</clipPath>
	</defs> 
</svg>
