<svg width="0" height="0" xmlns="http://www.w3.org/2000/svg">
	<symbol xmlns="http://www.w3.org/2000/svg" id="arrow" viewBox="0 0 6 12">
		<path d="M0.5 0.5L5.37544 5.68999C5.44606 5.76516 5.44793 5.8817 5.37976 5.95911L0.5 11.5" fill="none" stroke-linecap="round"/>
	</symbol>

	<symbol xmlns="http://www.w3.org/2000/svg" id="arrow2" viewBox="0 0 17 8">
		<path d="M16.5 0.500061L8.28378 6.50006L0.5 0.500061" fill="none" stroke-linecap="round"/>
	</symbol>

	<symbol xmlns="http://www.w3.org/2000/svg" id="arrow3" viewBox="0 0 19 8">
		<path d="M18.3536 4.03556C18.5488 3.8403 18.5488 3.52372 18.3536 3.32845L15.1716 0.146473C14.9763 -0.0487893 14.6597 -0.0487893 14.4645 0.146473C14.2692 0.341735 14.2692 0.658318 14.4645 0.85358L17.2929 3.68201L14.4645 6.51043C14.2692 6.7057 14.2692 7.02228 14.4645 7.21754C14.6597 7.4128 14.9763 7.4128 15.1716 7.21754L18.3536 4.03556ZM0 3.68201V4.18201H18V3.68201V3.18201H0V3.68201Z"/>
	</symbol>

	<symbol xmlns="http://www.w3.org/2000/svg" id="arrow4" viewBox="0 0 17 8">
		<path d="M16.5 0.5L8.28378 6.5L0.5 0.5" fill="none" stroke-linecap="round"/>
	</symbol>

	<symbol xmlns="http://www.w3.org/2000/svg" id="close1" viewBox="0 0 24 24">
		<path d="M5.46228 6.14874L17.4533 17.3571" stroke-linecap="round"/>
		<path d="M5.84509 17.4534L17.0535 5.46239" stroke-linecap="round"/>
	</symbol>

	<symbol xmlns="http://www.w3.org/2000/svg" id="lupa" viewBox="0 0 17 16">
		<circle cx="6" cy="6" r="5.5" fill="none"/>
		<line x1="10.0371" y1="9.75192" x2="15.9319" y2="15.6467" fill="none"/>
	</symbol>


	<defs>
		<clipPath id="waveClipBg" clipPathUnits="objectBoundingBox">
			<path d="M0 0.04644C0 0.020792 0.009594 0 0.021429 0H0.262823C0.264683 0 0.266535 0.000525 0.268333 0.001561L0.323681 0.033474C0.325479 0.034511 0.327331 0.035036 0.329191 0.035036H0.978571C0.990407 0.035036 1 0.055827 1 0.081475V0.885271C1 0.910918 0.990407 0.931711 0.978571 0.931711H0.891829C0.888079 0.931711 0.8844 0.933837 0.881157 0.937881L0.836207 0.99383C0.832957 0.997873 0.829279 1 0.825536 1H0.021429C0.009594 1 0 0.979209 0 0.95356V0.04644Z"/>
		</clipPath>
		<clipPath id="waveClipSystem" clipPathUnits="objectBoundingBox">
			<path d="M0.000000 0.070423C0.000000 0.031529 0.009594 0.000000 0.021429 0.000000H0.263331C0.265015 0.000000 0.266668 0.000355 0.268177 0.001059L0.324551 0.033958C0.325774 0.034689 0.327013 0.034997 0.328254 0.034997H0.978571C0.990407 0.034997 1.000000 0.066540 1.000000 0.105431V0.861098C1.000000 0.900094 0.990407 0.931638 0.978571 0.931638H0.889321C0.888142 0.931638 0.886976 0.933091 0.885829 0.936051L0.834921 0.995441C0.833774 0.998401 0.832608 1.000000 0.831429 1.000000H0.021429C0.009594 1.000000 0.000000 0.968472 0.000000 0.929577V0.070423Z"/>
		</clipPath>
		<clipPath id="waveClipFunc" clipPathUnits="objectBoundingBox">
			<path d="M0 0.032535 C0 0.014571 0.006623 0 0.014801 0 H0.559775 C0.561224 0 0.562655 0.000447 0.564020 0.001327 L0.693362 0.085288 C0.694727 0.086168 0.696158 0.086615 0.697606 0.086615 H0.985202 C0.993383 0.086615 1 0.101243 1 0.119193 V0.899183 C1 0.917133 0.993383 0.931761 0.985202 0.931761 H0.857745 C0.856070 0.931761 0.854414 0.932555 0.852884 0.934107 L0.776579 0.998959 C0.775049 1.000510 0.773393 1.001304 0.771718 1.001304 H0.430056 C0.427510 1.001304 0.424999 1.000718 0.422634 0.999588 L0.338722 0.933286 C0.336357 0.932156 0.333846 0.931570 0.331299 0.931570 H0.014801 C0.006623 0.931570 0 0.917133 0 0.899183 V0.032535 Z"/>
		</clipPath>
		<clipPath id="waveClipFunc_tablet" clipPathUnits="objectBoundingBox">
			<path d="M0 0.0292403C0 0.0130916 0.0131003 0 0.0200535 0H0.557602C0.560184 0 0.562744 0.000859239 0.565153 0.00252137L0.691389 0.0841474C0.694054 0.0858582 0.696614 0.0866717 0.699196 0.0866717H0.980000C0.992302 0.0866717 1 0.0991267 1 0.115930V0.902093C1 0.920486 0.992302 0.932093 0.980000 0.932093H0.860216C0.856494 0.932093 0.852861 0.933862 0.849474 0.936415L0.778474 0.996108C0.775087 0.998661 0.771454 1 0.767732 1H0.432327C0.429078 1 0.425895 0.998944 0.423044 0.997013L0.340806 0.934848C0.337955 0.932917 0.334772 0.932093 0.331523 0.932093H0.0200535C0.0131003 0.932093 0 0.920486 0 0.902093V0.0292403Z"/>
		</clipPath>
		<clipPath id="waveClipFunc_mob" clipPathUnits="objectBoundingBox">
			<path d="M0 0.01675C0 0.007503 0.014924 0 0.033333 0H0.544827C0.5554 0 0.566347 0.005031 0.574963 0.010782L0.68528 0.084134C0.693896 0.089885 0.704843 0.095915 0.713416 0.095915H0.966667C0.981744 0.095915 1 0.09813 1 0.10779V0.960799C1 0.970457 0.981744 0.972672 0.966667 0.972672H0.86477C0.857845 0.972672 0.850902 0.974526 0.844566 0.977469L0.791684 0.998542C0.785348 1.00149 0.778405 1 0.772079 1H0.215556C0.213253 1 0.210946 0.999242 0.208817 0.998031L0.172764 0.97901C0.170635 0.977798 0.168328 0.977039 0.166025 0.977039H0.0333333C0.014924 0.977039 0 0.970457 0 0.960799V0.01675Z"/>
		</clipPath>
		<clipPath id="waveClipFirmwareWhite" clipPathUnits="objectBoundingBox">
			<path d="M0 0.095420 C0 0.042708 0.026983 0 0.060241 0 H0.507567 C0.516848 0 0.525999 0.003406 0.534343 0.009943 L0.674698 0.119770 C0.683042 0.126307 0.692193 0.129771 0.701474 0.129771 H0.939759 C0.973018 0.129771 1 0.172481 1 0.225191 V0.904580 C1 0.957290 0.973018 1 0.939759 1 H0.609639 H0.405082 H0.258888 H0.060241 C0.026983 1 0 0.957290 0 0.904580 V0.095420 Z"/>
		</clipPath>
		<clipPath id="waveClipFirmwareWhite_tablet" clipPathUnits="objectBoundingBox">
			<path d="M0 0.065789 C0 0.029483 0.02145 0 0.04792 0 H0.509 C0.517 0 0.525 0.002997 0.533 0.008703 L0.67599 0.12107 C0.68299 0.12678 0.691 0.12977 0.698 0.12977 H0.95207 C0.978 0.12977 1 0.19556 1 0.19556 V0.93421 C1 0.97056 0.978 1 0.95207 1 H0.60948 H0.40573 H0.25850 H0.04792 C0.02145 1 0 0.97056 0 0.93421 V0.065789 Z"/>
		</clipPath>
		<clipPath id="waveClipFirmwareWhite_mob" clipPathUnits="objectBoundingBox">
			<path d="M0 0.0833333C0 0.0373096 0.022386 0 0.05 0H0.510487C0.511193 0 0.512813 0.00163261 0.514817 0.00796472L0.676617 0.121806C0.678621 0.128138 0.680241 0.129771 0.682244 0.129771H0.95C0.977613 0.129771 1 0.167081 1 0.213104V0.916667C1 0.96269 0.977613 1 0.95 1H0.609641H0.405713H0.258394H0.05C0.022386 1 0 0.96269 0 0.916667V0.0833333Z"/>
		</clipPath>
		<clipPath id="waveClipFirmwareGreen" clipPathUnits="objectBoundingBox">
			<path d="M0 0.065104 C0 0.029179 0.026983 0 0.060241 0 H0.506024 H0.729638 C0.741410 0 0.752771 0.003834 0.762415 0.011849 L0.974390 0.171953 C0.991964 0.185362 1 0.203497 1 0.225208 V0.936198 C1 0.968736 0.991964 0.994271 0.974390 1 H0.422634 C0.411066 1 0.400676 0.996166 0.391032 0.988151 L0.269223 0.909661 C0.260579 0.901646 0.250189 0.897813 0.240578 0.897813 H0.060241 C0.026983 0.897813 0 0.871276 0 0.836458 V0.065104 Z"/>
		</clipPath>
		<clipPath id="waveClipFirmwareGreen_tablet" clipPathUnits="objectBoundingBox">
			<path d="M0 0.0666667C0 0.0298477 0.01618 0 0.03614 0H0.50602H0.74163C0.74455 0 0.74745 0.00170861 0.75022 0.00502916L0.97763 0.1744C0.99127 0.180247 1 0.19592 1 0.214927V0.933333C1 0.970152 0.98382 1 0.96386 1H0.40508H0.25542H0.03614C0.01618 1 0 0.970152 0 0.933333V0.0666667Z"/>
		</clipPath>
		<clipPath id="waveClipFirmwareGreen_mob" clipPathUnits="objectBoundingBox">
			<path d="M0 0.071090C0 0.031798 0.022386 0 0.05 0H0.506023H0.735027C0.743657 0 0.752127 0.00232417 0.760317 0.0068756L0.974623 0.182299C0.987003 0.194382 1 0.21818 1 0.243852V0.929858C1 0.96653 0.987003 0.991328 0.974623 0.991328H0.404133C0.40028 0.991328 0.396414 0.990573 0.392617 0.989268L0.261067 0.953139C0.25727 0.951835 0.253404 0.951079 0.249551 0.951079H0.05C0.022386 0.951079 0 0.926281 0 0.889609V0.071090Z"/>
		</clipPath>
		<clipPath id="waveClipFirmwareGrey" clipPathUnits="objectBoundingBox">
			<path d="M0 0.14793 C0 0.06635 0.026983 0 0.060241 0 H0.211105 C0.219257 0 0.227040 0.007332 0.234763 0.02076 L0.334795 0.15682 C0.342518 0.170245 0.350301 0.177578 0.358453 0.177578 H0.939759 C0.973018 0.177578 1 0.242603 1 0.32544 V0.852071 C1 0.934908 0.973018 1 0.939759 1 H0.405082 H0.257590 H0.060241 C0.026983 1 0 0.934908 0 0.852071 V0.14793 Z"/>
		</clipPath>
		<clipPath id="waveClipFirmwareGrey_tablet" clipPathUnits="objectBoundingBox">
			<path d="M0 0.088758 C0 0.039746 0.02145 0 0.04792 0 H0.21117 C0.22193 0 0.23228 0.006702 0.24102 0.019028 L0.33636 0.1585 C0.3451 0.17083 0.35545 0.17753 0.36621 0.17753 H0.95144 C0.978 0.17753 1 0.21725 1 0.26627 V0.91006 C1 0.95908 0.978 1 0.95144 1 H0.40573 H0.25850 H0.04792 C0.02145 1 0 0.95908 0 0.91006 V0.088758 Z"/>
		</clipPath>
		<clipPath id="waveClipFirmwareGrey_mob" clipPathUnits="objectBoundingBox">
			<path d="M0 0.100671C0 0.045015 0.022386 0 0.05 0H0.211501C0.222038 0 0.232305 0.0035262 0.242171 0.010487L0.33627 0.15846C0.346137 0.165421 0.356404 0.168947 0.366941 0.168947H0.95C0.977613 0.168947 1 0.222815 1 0.278523V0.899328C1 0.955036 0.977613 1 0.95 1H0.405429H0.260697H0.173597H0.05C0.022386 1 0 0.955036 0 0.899328V0.100671Z"/>
		</clipPath>
		<clipPath id="roundedPoly" clipPathUnits="objectBoundingBox">
			<path d="M0 0.03285 C0 0.01471 0.01634 0 0.03650 0 H0.89206 C0.90331 0 0.91294 0.004313 0.92016 0.01178 L0.99220 0.08871 C0.99740 0.09461 1 0.10208 1 0.10979 V0.96709 C1 0.98513 0.98411 1 0.96350 1 H0.67093 C0.65947 1 0.64766 0.99550 0.64079 0.98586 L0.63999 0.98480 C0.63306 0.97583 0.62203 0.97057 0.60949 0.97057 H0.03650 C0.01634 0.97057 0 0.95573 0 0.93745 V0.03285 Z" />
		</clipPath>
		<clipPath id="roundedPoly2" clipPathUnits="objectBoundingBox">
			<path d="M0 0.03285 C0 0.01471 0.01634 0 0.03650 0 H0.96350 C0.98411 0 1 0.01471 1 0.03285 V0.93824 C1 0.95639 0.98411 0.97112 0.96350 0.97112 H0.40452 C0.40128 0.97112 0.39941 0.97136 0.39656 0.97185 L0.26233 0.99919 C0.25973 0.99974 0.25703 1 0.25420 1 H0.03650 C0.01634 1 0 0.98529 0 0.96712 V0.03285 Z" />
		</clipPath>
		<clipPath id="roundedPoly_tablet" clipPathUnits="objectBoundingBox">
			<path d="M0 0H0.89203C0.90284 0 0.91311 0.00431 0.92003 0.01177L0.99149 0.08869C0.99674 0.09458 1 0.10203 1 0.10974V0.96714C1 0.98529 0.98365 1 0.96350 1H0.67093C0.65891 1 0.64765 0.99532 0.64084 0.98573L0.64002 0.98454C0.63334 0.97554 0.62187 0.97024 0.60984 0.97024H0.03650C0.01634 0.97024 0 0.95553 0 0.93738V0Z"/>
		</clipPath>
		<clipPath id="roundedPoly_tablet2" clipPathUnits="objectBoundingBox">
			<path d="M0 0H0.96350C0.98365 0 1 0.01471 1 0.03285V0.93824C1 0.95639 0.98365 0.97112 0.96350 0.97112H0.40481C0.40216 0.97112 0.39951 0.97136 0.39687 0.97184L0.26233 0.99918C0.25969 0.99973 0.25704 1 0.25440 1H0.03650C0.01634 1 0 0.98529 0 0.96714V0Z"/>
		</clipPath>
		<clipPath id="roundedPoly_mob" clipPathUnits="objectBoundingBox">
			<path d="M0 0H1V0.0917V0.9686C1 0.9843 0.9882 1 0.9737 1H0.6586C0.6533 1 0.6481 0.9982 0.6438 0.9947L0.6363 0.9889C0.632 0.9854 0.6268 0.9827 0.6210 0.9827H0.0263C0.0118 0.9827 0 0.9671 0 0.9514V0Z"/>
		</clipPath>
		<clipPath id="roundedPoly_mob2" clipPathUnits="objectBoundingBox">
			<path d="M0 0H1V0.9397C1 0.9554 0.9882 0.971 0.9737 0.971H0.4029C0.4015 0.971 0.4 0.9712 0.3985 0.9715L0.2606 0.9995C0.2591 0.9998 0.2575 1 0.2562 1H0.0263C0.0118 1 0 0.9857 0 0.9686V0Z"/>
		</clipPath>
		<clipPath id="waveClip" clipPathUnits="objectBoundingBox"> 
			<path d="M0 0.07317 C0 0.0328 0.00959 0 0.02143 0 H0.26383 C0.26502 0 0.26625 0.000342 0.26668 0.00102 L0.32461 0.03403 C0.3258 0.03462 0.3273 0.03499 0.32841 0.03499 H0.97857 C0.99041 0.03499 1 0.0678 1 0.10821 V0.85806 C1 0.90017 0.99041 0.93244 0.97857 0.93244 H0.89061 C0.88739 0.93244 0.88419 0.93306 0.88256 0.93485 L0.83409 0.99678 C0.83245 0.9985 0.83069 1 0.82842 1 H0.02143 C0.00959 1 0 0.96873 0 0.92683 V0.07317 Z" />
		</clipPath>
		<clipPath id="waveClip_tablet" clipPathUnits="objectBoundingBox">
			<path d="M0 0.0342C0 0.0153 0.009 0 0.0201 0H0.2624C0.265 0 0.267 0.0006 0.269 0.0018L0.3233 0.0332C0.3253 0.0344 0.3275 0.035 0.330 0.035H0.98C0.991 0.035 1 0.0503 1 0.0692V0.8976C1 0.9165 0.991 0.9317 0.98 0.9317H0.8926C0.887 0.9317 0.882 0.9341 0.88 0.9371L0.8367 0.9935C0.834 0.9966 0.829 1 0.824 1H0.0201C0.009 1 0 0.9847 0 0.9658V0.0342Z" />
		</clipPath>
		<clipPath id="waveClip_mob" clipPathUnits="objectBoundingBox">
			<path d="M0 0.0184C0 0.0083 0.0149 0 0.0333 0H0.2514C0.2605 0 0.2692 0.0021 0.2755 0.0057L0.3165 0.0294C0.3228 0.033 0.3315 0.035 0.3406 0.035H0.9667C0.9849 0.035 1 0.0433 1 0.0535V0.9132C1 0.9234 0.9849 0.9317 0.9667 0.9317H0.9078C0.8946 0.9317 0.8827 0.9363 0.8773 0.9441L0.8400 0.9892C0.8346 0.997 0.8227 1 0.8095 1H0.0333C0.0149 1 0 0.9917 0 0.9816V0.0184Z"/>
		</clipPath>
		<clipPath id="waveClip2" clipPathUnits="objectBoundingBox">
			<path d="M0 0.1 C0 0.04477 0.01189 0 0.02658 0 H0.26364 C0.26494 0 0.26623 0.00039 0.26755 0.00115 L0.32431 0.03388 
			C0.32563 0.03465 0.32693 0.03504 0.32825 0.03504 H0.97334 C0.98708 0.03504 1 0.07981 1 0.13504 V0.83171 
			C1 0.88694 0.98708 0.93171 0.97334 0.93171 H0.89026 C0.88796 0.93171 0.88566 0.93342 0.88334 0.93677 L0.83497 0.99494 C0.83265 0.99829 0.82954 1 0.82622 1 H0.02658 
			C0.01189 1 0 0.95523 0 0.9 V0.1 Z"/>
		</clipPath>
		<clipPath id="waveClip2_tablet" clipPathUnits="objectBoundingBox">
			<path d="M0 0.09921  C0 0.04441 0.01496 0 0.03342 0 H0.2624 C0.26461 0 0.2668 0.00061 0.26902 0.00182 L0.32328 0.03321 C0.3255 0.03442 0.32773 0.03504 0.32995 0.03504 
			H0.96658 C0.9847 0.03504 1 0.07945 1 0.13416 V0.83251 C1 0.88722 0.9847 0.93163 0.96658 0.93163 H0.89284 C0.88865 0.93163 0.88447 0.93313 0.88007 0.93942 
			L0.83748 0.99227 C0.83308 0.99855 0.8289 1 0.82453 1 H0.03342 C0.01496 1 0 0.95635 0 0.90079  V0.09921  Z"/>
		</clipPath>
		<clipPath id="waveClip2_mob" clipPathUnits="objectBoundingBox">
			<path d="M0 0.04525 C0 0.02026 0.01492 0 0.03333 0 H0.25884 C0.26332 0 0.26775 0.00123 0.27187 0.00360 L0.32014 0.03144 
			C0.32426 0.03381 0.32870 0.03503 0.33317 0.03503 H0.96667 C0.98508 0.03503 1 0.05529 1 0.08028 V0.88686 C1 0.91185 0.98508 0.93190 0.96667 0.93190 H0.89908 
			C0.89074 0.93190 0.88270 0.93603 0.87655 0.94441 L0.84081 0.98869 C0.83470 0.99707 0.82662 1 0.81793 1 H0.03333 C0.01492 1 0 0.97964 0 0.95475 V0.04525 Z"/>
		</clipPath>
		<clipPath id="waveClip3" clipPathUnits="objectBoundingBox"> 
			<path d="M0 0.10667 C0 0.08457 0.00480 0.06667 0.01071 0.06667 H0.78239 C0.78317 0.06667 0.78396 0.06634 0.78473 0.06570 L0.86206 0.00097
				C0.86283 0.00033 0.86361 0 0.86440 0 H0.98929 C0.99520 0 1 0.01797 1 0.04000 V0.96000 C1 0.98209 0.99520 1 0.98929 1 H0.01071 C0.00480 1 0 0.98209 0 0.96000
				V0.10667 Z" />
		</clipPath>
		<clipPath id="waveClip3_tablet" clipPathUnits="objectBoundingBox"> 
			<path d="M0 0.107558 C0 0.084973 0.008979 0.066667 0.020053 0.066667 H0.779959 C0.782611 0.066667 0.785033 0.065615 0.787861 0.063578 L0.859474 0.003063 C0.861646 0.001041 0.864351 0 0.867054 0 H0.979947 C0.990640 0 1 0.018302 1 0.040873 V0.959127 C1 0.981698 0.990640 1 0.979947 1 H0.020053 C0.008979 1 0 0.981698 0 0.959127 V0.107558 Z"/>
		</clipPath>
		<clipPath id="waveClip3_mob" clipPathUnits="objectBoundingBox">
			<path d="M0 0.058170 C0 0.042840 0.022386 0.030420 0.05 0.030420 H0.768293 C0.778250 0.030420 0.787983 0.028788 0.796240 0.025709 L0.852330 0.004737 C0.860590 0.001649 0.870320 0 0.880277 0 H0.95 C0.977613 0 1 0.012412 1 0.027720 V0.972270 C1 0.987580 0.977613 1 0.95 1 H0.05 C0.022386 1 0 0.987580 0 0.972270 V0.058170 Z"/>
		</clipPath>

		<clipPath id="infoClip" clipPathUnits="objectBoundingBox">
			<path d="M0 0.078616 C0 0.035216 0.014968 0 0.033422 0 H0.261771 C0.264542 0 0.267041 0.000758 0.269445 0.002261 L0.322610 0.032780 C0.325135 0.034279 0.327673 0.035019 0.330211 0.035019 H0.967250 C0.985130 0.035019 1 0.070225 1 0.113676 V0.852128 C1 0.896845 0.985130 0.931696 0.967250 0.931696 H0.894719 C0.889729 0.931696 0.884510 0.934782 0.879019 0.941722 L0.839066 0.991127 C0.834356 0.996855 0.828256 1 0.822489 1 H0.033422 C0.014968 1 0 0.964922 0 0.921383 V0.078616 Z"/>
		</clipPath>
		<clipPath id="infoClip_mob" clipPathUnits="objectBoundingBox">
			<path d="M0 0.056180 C0 0.025148 0.022386 0 0.05 0 H0.253545 C0.261484 0 0.269309 0.002124 0.276373 0.006197 L0.315641 0.028827 C0.322705 0.032907 0.330530 0.035028 0.338470 0.035028 H0.95 C0.977613 0.035028 1 0.060211 1 0.091188 V0.875531 C1 0.906558 0.977613 0.931712 0.95 0.931712 H0.908337 C0.894187 0.931712 0.880700 0.938827 0.871220 0.950247 L0.846140 0.981464 C0.836660 0.993856 0.823173 1 0.809027 1 H0.05 C0.022386 1 0 0.975226 0 0.944944 V0.056180 Z"/>
		</clipPath>
	</defs>
</svg>