<svg width="0" height="0" xmlns="http://www.w3.org/2000/svg">
	<symbol xmlns="http://www.w3.org/2000/svg" id="arrow" viewBox="0 0 6 12">
		<path d="M0.5 0.5L5.37544 5.68999C5.44606 5.76516 5.44793 5.8817 5.37976 5.95911L0.5 11.5" fill="none" stroke-linecap="round"/>
	</symbol>

	<symbol xmlns="http://www.w3.org/2000/svg" id="arrow2" viewBox="0 0 17 8">
		<path d="M16.5 0.500061L8.28378 6.50006L0.5 0.500061" fill="none" stroke-linecap="round"/>
	</symbol>

	<defs>
		<clipPath id="roundedPoly" clipPathUnits="objectBoundingBox">
			<path d="M0 0.03285 C0 0.01471 0.01634 0 0.03650 0 H0.89206 C0.90331 0 0.91294 0.004313 0.92016 0.01178 L0.99220 0.08871 C0.99740 0.09461 1 0.10208 1 0.10979 V0.96709 C1 0.98513 0.98411 1 0.96350 1 H0.67093 C0.65947 1 0.64766 0.99550 0.64079 0.98586 L0.63999 0.98480 C0.63306 0.97583 0.62203 0.97057 0.60949 0.97057 H0.03650 C0.01634 0.97057 0 0.95573 0 0.93745 V0.03285 Z" />
		</clipPath>
		<clipPath id="roundedPoly2" clipPathUnits="objectBoundingBox">
			<path d="M0 0.03285 C0 0.01471 0.01634 0 0.03650 0 H0.96350 C0.98411 0 1 0.01471 1 0.03285 V0.93824 C1 0.95639 0.98411 0.97112 0.96350 0.97112 H0.40452 C0.40128 0.97112 0.39941 0.97136 0.39656 0.97185 L0.26233 0.99919 C0.25973 0.99974 0.25703 1 0.25420 1 H0.03650 C0.01634 1 0 0.98529 0 0.96712 V0.03285 Z" />
		</clipPath>
		<clipPath id="roundedPoly_mob" clipPathUnits="objectBoundingBox">
			<path d="M0 0.03984 C0 0.01783 0.01497 0 0.03345 0 H0.96656 C0.98569 0 1 0.01497 1 0.03984 V0.09175 V0.96016 C1 0.98182 0.98569 1 0.96656 1 H0.66075 C0.65374 1 0.64775 0.99759 0.64201 0.99317 L0.63788 0.98944 C0.63100 0.98530 0.62549 0.98240 0.61847 0.98240 H0.03345 C0.01497 0.98240 0 0.96440 0 0.94280 V0.03984 Z" />
		</clipPath>
		<clipPath id="roundedPoly_mob2" clipPathUnits="objectBoundingBox">
			<path d="M0 0.03984 C0 0.01783 0.01497 0 0.03345 0 H0.96656 C0.98569 0 1 0.01783 1 0.03984 V0.93125 C1 0.95326 0.98569 0.97109 0.96656 0.97109 H0.40357 C0.40168 0.97109 0.39997 0.97127 0.39827 0.97166 L0.26118 0.99943 C0.25948 0.99979 0.25744 1 0.25557 1 H0.03345 C0.01497 1 0 0.98217 0 0.96016 V0.03984 Z" />
		</clipPath>
		<clipPath id="waveClip" clipPathUnits="objectBoundingBox"> 
			<path d="M0 0.07317 C0 0.0328 0.00959 0 0.02143 0 H0.26383 C0.26502 0 0.26625 0.000342 0.26668 0.00102 L0.32461 0.03403 C0.3258 0.03462 0.3273 0.03499 0.32841 0.03499 H0.97857 C0.99041 0.03499 1 0.0678 1 0.10821 V0.85806 C1 0.90017 0.99041 0.93244 0.97857 0.93244 H0.89061 C0.88739 0.93244 0.88419 0.93306 0.88256 0.93485 L0.83409 0.99678 C0.83245 0.9985 0.83069 1 0.82842 1 H0.02143 C0.00959 1 0 0.96873 0 0.92683 V0.07317 Z" />
		</clipPath>
		<clipPath id="waveClip_tablet" clipPathUnits="objectBoundingBox">
			<path d="M0 0.0342C0 0.0153 0.009 0 0.0201 0H0.2624C0.265 0 0.267 0.0006 0.269 0.0018L0.3233 0.0332C0.3253 0.0344 0.3275 0.035 0.330 0.035H0.98C0.991 0.035 1 0.0503 1 0.0692V0.8976C1 0.9165 0.991 0.9317 0.98 0.9317H0.8926C0.887 0.9317 0.882 0.9341 0.88 0.9371L0.8367 0.9935C0.834 0.9966 0.829 1 0.824 1H0.0201C0.009 1 0 0.9847 0 0.9658V0.0342Z" />
		</clipPath>
		<clipPath id="waveClip_mob" clipPathUnits="objectBoundingBox">
			<path d="M0 0.0184C0 0.0083 0.0149 0 0.0333 0H0.2514C0.2605 0 0.2692 0.0021 0.2755 0.0057L0.3165 0.0294C0.3228 0.033 0.3315 0.035 0.3406 0.035H0.9667C0.9849 0.035 1 0.0433 1 0.0535V0.9132C1 0.9234 0.9849 0.9317 0.9667 0.9317H0.9078C0.8946 0.9317 0.8827 0.9363 0.8773 0.9441L0.8400 0.9892C0.8346 0.997 0.8227 1 0.8095 1H0.0333C0.0149 1 0 0.9917 0 0.9816V0.0184Z"/>
		</clipPath>
	</defs>
</svg>