<svg width="0" height="0" xmlns="http://www.w3.org/2000/svg">
	<symbol xmlns="http://www.w3.org/2000/svg" id="arrow" viewBox="0 0 6 12">
		<path d="M0.5 0.5L5.37544 5.68999C5.44606 5.76516 5.44793 5.8817 5.37976 5.95911L0.5 11.5" fill="none" stroke-linecap="round"/>
	</symbol>

	<symbol xmlns="http://www.w3.org/2000/svg" id="arrow2" viewBox="0 0 17 8">
		<path d="M16.5 0.500061L8.28378 6.50006L0.5 0.500061" fill="none" stroke-linecap="round"/>
	</symbol>

	<symbol xmlns="http://www.w3.org/2000/svg" id="arrow3" viewBox="0 0 19 8">
		<path d="M18.3536 4.03556C18.5488 3.8403 18.5488 3.52372 18.3536 3.32845L15.1716 0.146473C14.9763 -0.0487893 14.6597 -0.0487893 14.4645 0.146473C14.2692 0.341735 14.2692 0.658318 14.4645 0.85358L17.2929 3.68201L14.4645 6.51043C14.2692 6.7057 14.2692 7.02228 14.4645 7.21754C14.6597 7.4128 14.9763 7.4128 15.1716 7.21754L18.3536 4.03556ZM0 3.68201V4.18201H18V3.68201V3.18201H0V3.68201Z"/>
	</symbol>

	<symbol xmlns="http://www.w3.org/2000/svg" id="arrow4" viewBox="0 0 17 8">
		<path d="M16.5 0.5L8.28378 6.5L0.5 0.5" fill="none" stroke-linecap="round"/>
	</symbol>

	<symbol xmlns="http://www.w3.org/2000/svg" id="close1" viewBox="0 0 24 24">
		<path d="M5.46228 6.14874L17.4533 17.3571" stroke-linecap="round"/>
		<path d="M5.84509 17.4534L17.0535 5.46239" stroke-linecap="round"/>
	</symbol>

	<symbol xmlns="http://www.w3.org/2000/svg" id="lupa" viewBox="0 0 17 16">
		<circle cx="6" cy="6" r="5.5" fill="none"/>
		<line x1="10.0371" y1="9.75192" x2="15.9319" y2="15.6467" fill="none"/>
	</symbol>


	<defs>
		<clipPath id="roundedPoly" clipPathUnits="objectBoundingBox">
			<path d="M0 0.03285 C0 0.01471 0.01634 0 0.03650 0 H0.89206 C0.90331 0 0.91294 0.004313 0.92016 0.01178 L0.99220 0.08871 C0.99740 0.09461 1 0.10208 1 0.10979 V0.96709 C1 0.98513 0.98411 1 0.96350 1 H0.67093 C0.65947 1 0.64766 0.99550 0.64079 0.98586 L0.63999 0.98480 C0.63306 0.97583 0.62203 0.97057 0.60949 0.97057 H0.03650 C0.01634 0.97057 0 0.95573 0 0.93745 V0.03285 Z" />
		</clipPath>
		<clipPath id="roundedPoly2" clipPathUnits="objectBoundingBox">
			<path d="M0 0.03285 C0 0.01471 0.01634 0 0.03650 0 H0.96350 C0.98411 0 1 0.01471 1 0.03285 V0.93824 C1 0.95639 0.98411 0.97112 0.96350 0.97112 H0.40452 C0.40128 0.97112 0.39941 0.97136 0.39656 0.97185 L0.26233 0.99919 C0.25973 0.99974 0.25703 1 0.25420 1 H0.03650 C0.01634 1 0 0.98529 0 0.96712 V0.03285 Z" />
		</clipPath>
		<clipPath id="roundedPoly_tablet" clipPathUnits="objectBoundingBox">
			<path d="M0 0H0.89203C0.90284 0 0.91311 0.00431 0.92003 0.01177L0.99149 0.08869C0.99674 0.09458 1 0.10203 1 0.10974V0.96714C1 0.98529 0.98365 1 0.96350 1H0.67093C0.65891 1 0.64765 0.99532 0.64084 0.98573L0.64002 0.98454C0.63334 0.97554 0.62187 0.97024 0.60984 0.97024H0.03650C0.01634 0.97024 0 0.95553 0 0.93738V0Z"/>
		</clipPath>
		<clipPath id="roundedPoly_tablet2" clipPathUnits="objectBoundingBox">
			<path d="M0 0H0.96350C0.98365 0 1 0.01471 1 0.03285V0.93824C1 0.95639 0.98365 0.97112 0.96350 0.97112H0.40481C0.40216 0.97112 0.39951 0.97136 0.39687 0.97184L0.26233 0.99918C0.25969 0.99973 0.25704 1 0.25440 1H0.03650C0.01634 1 0 0.98529 0 0.96714V0Z"/>
		</clipPath>
		<clipPath id="roundedPoly_mob" clipPathUnits="objectBoundingBox">
			<path d="M0 0H1V0.0917V0.9686C1 0.9843 0.9882 1 0.9737 1H0.6586C0.6533 1 0.6481 0.9982 0.6438 0.9947L0.6363 0.9889C0.632 0.9854 0.6268 0.9827 0.6210 0.9827H0.0263C0.0118 0.9827 0 0.9671 0 0.9514V0Z"/>
		</clipPath>
		<clipPath id="roundedPoly_mob2" clipPathUnits="objectBoundingBox">
			<path d="M0 0H1V0.9397C1 0.9554 0.9882 0.971 0.9737 0.971H0.4029C0.4015 0.971 0.4 0.9712 0.3985 0.9715L0.2606 0.9995C0.2591 0.9998 0.2575 1 0.2562 1H0.0263C0.0118 1 0 0.9857 0 0.9686V0Z"/>
		</clipPath>
		<clipPath id="waveClip" clipPathUnits="objectBoundingBox"> 
			<path d="M0 0.07317 C0 0.0328 0.00959 0 0.02143 0 H0.26383 C0.26502 0 0.26625 0.000342 0.26668 0.00102 L0.32461 0.03403 C0.3258 0.03462 0.3273 0.03499 0.32841 0.03499 H0.97857 C0.99041 0.03499 1 0.0678 1 0.10821 V0.85806 C1 0.90017 0.99041 0.93244 0.97857 0.93244 H0.89061 C0.88739 0.93244 0.88419 0.93306 0.88256 0.93485 L0.83409 0.99678 C0.83245 0.9985 0.83069 1 0.82842 1 H0.02143 C0.00959 1 0 0.96873 0 0.92683 V0.07317 Z" />
		</clipPath>
		<clipPath id="waveClip_tablet" clipPathUnits="objectBoundingBox">
			<path d="M0 0.0342C0 0.0153 0.009 0 0.0201 0H0.2624C0.265 0 0.267 0.0006 0.269 0.0018L0.3233 0.0332C0.3253 0.0344 0.3275 0.035 0.330 0.035H0.98C0.991 0.035 1 0.0503 1 0.0692V0.8976C1 0.9165 0.991 0.9317 0.98 0.9317H0.8926C0.887 0.9317 0.882 0.9341 0.88 0.9371L0.8367 0.9935C0.834 0.9966 0.829 1 0.824 1H0.0201C0.009 1 0 0.9847 0 0.9658V0.0342Z" />
		</clipPath>
		<clipPath id="waveClip_mob" clipPathUnits="objectBoundingBox">
			<path d="M0 0.0184C0 0.0083 0.0149 0 0.0333 0H0.2514C0.2605 0 0.2692 0.0021 0.2755 0.0057L0.3165 0.0294C0.3228 0.033 0.3315 0.035 0.3406 0.035H0.9667C0.9849 0.035 1 0.0433 1 0.0535V0.9132C1 0.9234 0.9849 0.9317 0.9667 0.9317H0.9078C0.8946 0.9317 0.8827 0.9363 0.8773 0.9441L0.8400 0.9892C0.8346 0.997 0.8227 1 0.8095 1H0.0333C0.0149 1 0 0.9917 0 0.9816V0.0184Z"/>
		</clipPath>
		<clipPath id="waveClip2" clipPathUnits="objectBoundingBox">
			<path d="M0 0.1 C0 0.04477 0.01189 0 0.02658 0 H0.26364 C0.26494 0 0.26623 0.00039 0.26755 0.00115 L0.32431 0.03388 
			C0.32563 0.03465 0.32693 0.03504 0.32825 0.03504 H0.97334 C0.98708 0.03504 1 0.07981 1 0.13504 V0.83171 
			C1 0.88694 0.98708 0.93171 0.97334 0.93171 H0.89026 C0.88796 0.93171 0.88566 0.93342 0.88334 0.93677 L0.83497 0.99494 C0.83265 0.99829 0.82954 1 0.82622 1 H0.02658 
			C0.01189 1 0 0.95523 0 0.9 V0.1 Z"/>
		</clipPath>
		<clipPath id="waveClip2_tablet" clipPathUnits="objectBoundingBox">
			<path d="M0 0.09921  C0 0.04441 0.01496 0 0.03342 0 H0.2624 C0.26461 0 0.2668 0.00061 0.26902 0.00182 L0.32328 0.03321 C0.3255 0.03442 0.32773 0.03504 0.32995 0.03504 
			H0.96658 C0.9847 0.03504 1 0.07945 1 0.13416 V0.83251 C1 0.88722 0.9847 0.93163 0.96658 0.93163 H0.89284 C0.88865 0.93163 0.88447 0.93313 0.88007 0.93942 
			L0.83748 0.99227 C0.83308 0.99855 0.8289 1 0.82453 1 H0.03342 C0.01496 1 0 0.95635 0 0.90079  V0.09921  Z"/>
		</clipPath>
		<clipPath id="waveClip2_mob" clipPathUnits="objectBoundingBox">
			<path d="M0 0.04525 C0 0.02026 0.01492 0 0.03333 0 H0.25884 C0.26332 0 0.26775 0.00123 0.27187 0.00360 L0.32014 0.03144 
			C0.32426 0.03381 0.32870 0.03503 0.33317 0.03503 H0.96667 C0.98508 0.03503 1 0.05529 1 0.08028 V0.88686 C1 0.91185 0.98508 0.93190 0.96667 0.93190 H0.89908 
			C0.89074 0.93190 0.88270 0.93603 0.87655 0.94441 L0.84081 0.98869 C0.83470 0.99707 0.82662 1 0.81793 1 H0.03333 C0.01492 1 0 0.97964 0 0.95475 V0.04525 Z"/>
		</clipPath>
		<clipPath id="waveClip3" clipPathUnits="objectBoundingBox"> 
			<path d="M0 0.10667 C0 0.08457 0.00480 0.06667 0.01071 0.06667 H0.78239 C0.78317 0.06667 0.78396 0.06634 0.78473 0.06570 L0.86206 0.00097
				C0.86283 0.00033 0.86361 0 0.86440 0 H0.98929 C0.99520 0 1 0.01797 1 0.04000 V0.96000 C1 0.98209 0.99520 1 0.98929 1 H0.01071 C0.00480 1 0 0.98209 0 0.96000
				V0.10667 Z" />
		</clipPath>
		<clipPath id="waveClip3_tablet" clipPathUnits="objectBoundingBox"> 
			<path d="M0 0.107558 C0 0.084973 0.008979 0.066667 0.020053 0.066667 H0.779959 C0.782611 0.066667 0.785033 0.065615 0.787861 0.063578 L0.859474 0.003063 C0.861646 0.001041 0.864351 0 0.867054 0 H0.979947 C0.990640 0 1 0.018302 1 0.040873 V0.959127 C1 0.981698 0.990640 1 0.979947 1 H0.020053 C0.008979 1 0 0.981698 0 0.959127 V0.107558 Z"/>
		</clipPath>
		<clipPath id="waveClip3_mob" clipPathUnits="objectBoundingBox">
			<path d="M0 0.058170 C0 0.042840 0.022386 0.030420 0.05 0.030420 H0.768293 C0.778250 0.030420 0.787983 0.028788 0.796240 0.025709 L0.852330 0.004737 C0.860590 0.001649 0.870320 0 0.880277 0 H0.95 C0.977613 0 1 0.012412 1 0.027720 V0.972270 C1 0.987580 0.977613 1 0.95 1 H0.05 C0.022386 1 0 0.987580 0 0.972270 V0.058170 Z"/>
		</clipPath>
	</defs>
</svg>